<svg id="Layer_1" 
data-name="Layer 1" 
xmlns="http://www.w3.org/2000/svg" 
viewBox="0 0 490 150"><title>white</title>
<path d="M162.06,75c0-10.64-12.7-19.86-32.51-25.44.9-3.22,1.62-6.36,2.16-9.39,2.83-15.88.35-27.09-7-31.54S106.27,7.13,93.49,17a108.07,108.07,0,0,0-9,7.89A109.85,109.85,0,0,0,75.37,17C62.59,7.14,51.51,4.17,44.16,8.63s-9.84,15.66-7,31.54c.54,3,1.25,6.17,2.15,9.39C19.51,55.14,6.79,64.36,6.79,75s12.72,19.86,32.52,25.43c-.9,3.23-1.61,6.37-2.15,9.4-2.84,15.87-.35,27.08,7,31.54a14.49,14.49,0,0,0,7.67,2c6.57,0,14.65-3.52,23.54-10.39a107.82,107.82,0,0,0,9.07-7.88,102.67,102.67,0,0,0,9,7.88c8.9,6.87,17,10.39,23.54,10.39a14.52,14.52,0,0,0,7.68-2c7.35-4.46,9.83-15.67,7-31.54-.54-3-1.26-6.17-2.16-9.4C149.36,94.86,162.06,85.64,162.06,75ZM95.59,19.71c8.22-6.34,15.69-9.65,21.46-9.65a11.13,11.13,0,0,1,5.87,1.51c6,3.62,7.93,13.82,5.4,28-.52,2.94-1.23,6-2.1,9.12a157.33,157.33,0,0,0-24.73-4A162.22,162.22,0,0,0,86.87,27.31,100.07,100.07,0,0,1,95.59,19.71ZM57.88,91.11c2.19,3.61,4.47,7.11,6.81,10.47a153.84,153.84,0,0,1-21.06-3.67A152.68,152.68,0,0,1,51,78.9C53.13,83,55.42,87.06,57.88,91.11Zm-14.25-39a153.84,153.84,0,0,1,21.06-3.67c-2.34,3.36-4.62,6.86-6.81,10.47-2.46,4-4.75,8.14-6.83,12.21A151.25,151.25,0,0,1,43.63,52.09ZM60.82,89.32c-2.89-4.75-5.53-9.55-7.89-14.32,2.36-4.76,5-9.57,7.89-14.33C63.51,56.26,66.32,52,69.21,48c4.93-.4,10-.61,15.22-.61s10.3.21,15.23.61c2.9,4,5.7,8.27,8.38,12.68,2.9,4.76,5.54,9.57,7.9,14.33-2.36,4.77-5,9.57-7.9,14.32-2.68,4.42-5.48,8.67-8.38,12.69-4.93.4-10,.61-15.23.61s-10.29-.21-15.22-.61C66.32,98,63.51,93.74,60.82,89.32ZM111,91.11c2.46-4,4.73-8.13,6.83-12.2a152.57,152.57,0,0,1,7.41,19,154.11,154.11,0,0,1-21.06,3.67C106.52,98.22,108.79,94.72,111,91.11Zm0-32.22c-2.2-3.61-4.47-7.11-6.82-10.47a154.11,154.11,0,0,1,21.06,3.67,152.68,152.68,0,0,1-7.41,19C115.73,67,113.45,62.94,111,58.89ZM97,44.33q-6.11-.39-12.52-.39t-12.52.39a153.65,153.65,0,0,1,12.52-14.6A153.65,153.65,0,0,1,97,44.33Zm-51-32.76a11.16,11.16,0,0,1,5.88-1.51c5.76,0,13.23,3.31,21.45,9.65A100.07,100.07,0,0,1,82,27.31,159.87,159.87,0,0,0,67.38,44.66a157.6,157.6,0,0,0-24.75,4c-.86-3.13-1.57-6.18-2.09-9.12C38,25.39,40,15.19,45.94,11.57ZM10.24,75c0-8.88,12-16.94,30.07-22A155.73,155.73,0,0,0,49.1,75a156.69,156.69,0,0,0-8.79,22C22.19,92,10.24,83.88,10.24,75Zm63,55.29c-8.22,6.33-15.69,9.65-21.45,9.65a11.16,11.16,0,0,1-5.88-1.51c-6-3.62-7.92-13.82-5.4-28,.52-3,1.23-6,2.09-9.12a157.6,157.6,0,0,0,24.75,4A160,160,0,0,0,82,122.7,101.62,101.62,0,0,1,73.27,130.29Zm11.16-10a153.65,153.65,0,0,1-12.52-14.6q6.11.39,12.52.39T97,105.67A153.65,153.65,0,0,1,84.43,120.27Zm38.49,18.16c-6,3.62-15.92.65-27.33-8.14a101.62,101.62,0,0,1-8.72-7.59,162.37,162.37,0,0,0,14.62-17.36,157.33,157.33,0,0,0,24.73-4c.87,3.13,1.58,6.17,2.1,9.12a63.33,63.33,0,0,1,1.07,11.14C129.39,129.9,127.18,135.85,122.92,138.43ZM128.56,97a157.91,157.91,0,0,0-8.79-22,156.94,156.94,0,0,0,8.79-22c18.12,5.08,30.06,13.14,30.06,22S146.68,91.94,128.56,97Z" fill="#fff"/><circle cx="84.43" cy="75" r="12.46" fill="#fff"/><path d="M237.27,78v.75h-19L206.7,55.47h-8.2V78.79H180.82v-69h27.82a37.12,37.12,0,0,1,14,2.4,19.76,19.76,0,0,1,9.17,7.08A19.47,19.47,0,0,1,235,30.64q0,8-3,12.53a21.92,21.92,0,0,1-8.84,7.47ZM198.5,41.11h10.14q4.32,0,6.52-2.15t2.2-6.33a8.46,8.46,0,0,0-2.27-6.31,8.86,8.86,0,0,0-6.45-2.22H198.5Z" fill="#fff"/><path d="M262.44,24.1V36.56h25.64V50.31H262.44V64.53h30.38V78.79H244.76v-69H293V24.1Z" fill="#fff"/><path d="M341.05,67.37H318.87l-3.51,11.42h-19l25.17-69H338.3l25.31,69H344.56Zm-4.41-14.31-6.73-21.81-6.68,21.81Z" fill="#fff"/><path d="M418.7,68a24,24,0,0,1-10.1,8.68,34.42,34.42,0,0,1-14.88,3,30,30,0,0,1-16-4.07,25.92,25.92,0,0,1-10.14-11.74,43.6,43.6,0,0,1-3.48-18.17V42.87a42.29,42.29,0,0,1,3.62-18.13A27.15,27.15,0,0,1,378,12.91a28.36,28.36,0,0,1,15.33-4.12A33.66,33.66,0,0,1,408.65,12,24.1,24.1,0,0,1,418.58,21a29.09,29.09,0,0,1,4.15,13.15H405.1c0-3.73-1-6.46-2.75-8.18s-4.81-2.58-9-2.58A10.31,10.31,0,0,0,387,25.16a11.13,11.13,0,0,0-3.62,6.07,43.62,43.62,0,0,0-1.21,11.54v3a48.1,48.1,0,0,0,1.11,11.75c.74,2.78,1.94,4.75,3.58,5.9a11.75,11.75,0,0,0,6.87,1.73c3.63,0,6.42-.8,8.34-2.41S405,58.54,405,55h17.59A24.89,24.89,0,0,1,418.7,68Z" fill="#fff"/><path d="M483.21,24.1H462.64V78.79H444.91V24.1H424.86V9.78h58.35Z" fill="#fff"/><path d="M211.3,134.32a13.36,13.36,0,0,1-5.46,5.06,18.44,18.44,0,0,1-8.58,1.83,16,16,0,0,1-8.87-2.48,16.39,16.39,0,0,1-5.95-7,24.78,24.78,0,0,1-2.12-10.53v-4.38a24.64,24.64,0,0,1,2.13-10.56,16.16,16.16,0,0,1,6.09-7,17,17,0,0,1,9.25-2.48A17.59,17.59,0,0,1,206,98.49a13.29,13.29,0,0,1,5.34,5.06,18.65,18.65,0,0,1,2.36,7.64h-5.77c-.46-3.24-1.47-5.68-3-7.34s-3.93-2.48-7.11-2.48a10.59,10.59,0,0,0-6.4,1.9,11.55,11.55,0,0,0-3.94,5.36,22.6,22.6,0,0,0-1.32,8.09v4.44a23.58,23.58,0,0,0,1.22,7.88,12,12,0,0,0,3.72,5.51,9.5,9.5,0,0,0,6.19,2,12.49,12.49,0,0,0,5.72-1.12,7.52,7.52,0,0,0,3.31-3.22,18,18,0,0,0,1.65-5.36h5.77A18.29,18.29,0,0,1,211.3,134.32Z" fill="#fff"/><path d="M252.71,131.48a16.28,16.28,0,0,1-6.06,7.22,16.81,16.81,0,0,1-24.47-7.26A25.82,25.82,0,0,1,220,120.35v-2.77a26,26,0,0,1,2.2-11.09,16.76,16.76,0,0,1,6.16-7.27,16.55,16.55,0,0,1,9.08-2.52,16.74,16.74,0,0,1,9.21,2.52,16.39,16.39,0,0,1,6.08,7.25,26.63,26.63,0,0,1,2.15,11.11v2.77A26.76,26.76,0,0,1,252.71,131.48Zm-5-22.66a11.38,11.38,0,0,0-4-5.43,10.71,10.71,0,0,0-6.32-1.84,10.49,10.49,0,0,0-6.19,1.86,11.75,11.75,0,0,0-4.08,5.44,23.51,23.51,0,0,0-1.43,8.68v2.82a23.5,23.5,0,0,0,1.45,8.72,11.77,11.77,0,0,0,4.09,5.46,10.54,10.54,0,0,0,6.22,1.86,10.09,10.09,0,0,0,8.63-4.13q3-4.14,3-11.91v-2.82A24.3,24.3,0,0,0,247.74,108.82Z" fill="#fff"/><path d="M291,140.62l-21.75-33.51v33.51h-5.77V97.29h5.77l21.84,33.6V97.29h5.71v43.33Z" fill="#fff"/><path d="M312.68,102v14.85h18.13v4.64H312.68v19.17h-5.77V97.29h26.84V102Z" fill="#fff"/><path d="M352.27,140.55v-3.92l14.19-15.79a58.28,58.28,0,0,0,4.07-5,15.71,15.71,0,0,0,2-3.63,10.07,10.07,0,0,0,.58-3.37,8.56,8.56,0,0,0-.9-3.94,6.76,6.76,0,0,0-2.58-2.8,7.65,7.65,0,0,0-4-1q-4.22,0-6.42,2.41A9.16,9.16,0,0,0,357,110h-5.56a14,14,0,0,1,1.64-6.75,11.84,11.84,0,0,1,4.84-4.8,17.59,17.59,0,0,1,14.66-.33,10.57,10.57,0,0,1,4.52,4.06,11.53,11.53,0,0,1,1.58,6.06,14.67,14.67,0,0,1-2.19,7.36,45.17,45.17,0,0,1-5.93,7.87L359,136.09h21.71v4.46Z" fill="#fff"/><path d="M410.18,136.7q-3.49,4.44-10.13,4.45t-10.17-4.46q-3.56-4.47-3.56-14.6v-6.63q0-10.11,3.52-14.45T400,96.67q6.66,0,10.17,4.34t3.51,14.45v6.63Q413.67,132.26,410.18,136.7Zm-4.08-32.43a7.48,7.48,0,0,0-12.19,0q-2,3.15-2,10.26V123q0,7.11,2.08,10.42a6.75,6.75,0,0,0,6.09,3.32,6.62,6.62,0,0,0,6.07-3.29q2-3.28,2-10.45v-8.41Q408.11,107.4,406.1,104.27Z" fill="#fff"/><path d="M433.26,140.55V103.83l-11.06,4.08v-5L438,97h.86v43.52Z" fill="#fff"/><path d="M475.59,99.12a14.14,14.14,0,0,1,4.54,6.41,25,25,0,0,1,1.45,8.62v2a43.14,43.14,0,0,1-1.55,12,16.92,16.92,0,0,1-6.1,8.85q-4.55,3.53-13,3.52h-.56V136H461q8.2,0,11.49-3.94T476,121.52a13.24,13.24,0,0,1-4.2,3.33,11.12,11.12,0,0,1-5.14,1.22,11.29,11.29,0,0,1-6.87-2.06,12.39,12.39,0,0,1-4.14-5.37,19.09,19.09,0,0,1,.19-14.61,12.35,12.35,0,0,1,4.58-5.38,13.08,13.08,0,0,1,7.31-2A12.32,12.32,0,0,1,475.59,99.12Zm-3,20.75a10.34,10.34,0,0,0,3.44-4.26v-2.17a17.54,17.54,0,0,0-1.13-6.59,9.79,9.79,0,0,0-3-4.22,6.7,6.7,0,0,0-4.13-1.44,7.08,7.08,0,0,0-4.28,1.31,8.18,8.18,0,0,0-2.77,3.61,13.61,13.61,0,0,0-.95,5.22,14.27,14.27,0,0,0,.88,5,8.68,8.68,0,0,0,2.65,3.77,6.58,6.58,0,0,0,4.29,1.44A8.34,8.34,0,0,0,472.61,119.87Z" fill="#fff"/></svg>