<svg width="920" height="192" xmlns="http://www.w3.org/2000/svg"><g fill="none" fill-rule="evenodd" opacity=".748"><g opacity=".303" stroke="#8C1E35" stroke-linecap="round" stroke-width=".75"><g opacity=".9"><path d="M77.9 126.1C50 99.2 23 71.2-4.5 43.7M77.9 136.1C50 109.2 23 81.2-4.5 53.7M77.9 146.1C50 119.2 23 91.2-4.5 63.7M77.9 156.1C50 129.2 23 101.2-4.5 73.7M77.9 166.1C50 139.2 23 111.2-4.5 83.7M77.9 176.1C50 149.2 23 121.2-4.5 93.7M77.9 186.1C50 159.2 23 131.2-4.5 103.7M77.9 196.1C50 169.2 23 141.2-4.5 113.7M77.9 206.1C50 179.2 23 151.2-4.5 123.7M77.9 216.1C50 189.2 23 161.2-4.5 133.7M77.9 226.1C50 199.2 23 171.2-4.5 143.7M77.9 236.1C50 209.2 23 181.2-4.5 153.7"/><g><path d="M196.9 126.1L77.1 6.4M196.9 136.1L77.1 16.4M196.9 146.1L77.1 26.4M196.9 156.1L77.1 36.4M196.9 166.1L77.1 46.4M196.9 176.1L77.1 56.4M196.9 186.1L77.1 66.4M196.9 196.1L77.1 76.4M196.9 206.1L77.1 86.4M196.9 216.1L77.1 96.4M196.9 226.1L77.1 106.4M196.9 236.1L77.1 116.4"/></g><g><path d="M77.9 7.1C50-19.8 23-47.8-4.5-75.2M77.9 17.1C50-9.8 23-37.8-4.5-65.2M77.9 27.1C50 .2 23-27.8-4.5-55.2M77.9 37.1C50 10.2 23-17.8-4.5-45.2M77.9 47.1C50 20.2 23-7.8-4.5-35.2M77.9 57.1C50 30.2 23 2.2-4.5-25.2M77.9 67.1C50 40.2 23 12.2-4.5-15.2M77.9 77.1C50 50.2 23 22.2-4.5-5.2M77.9 87.1C50 60.2 23 32.2-4.5 4.7M77.9 97.1C50 70.2 23 42.2-4.5 14.7M77.9 107.1C50 80.2 23 52.2-4.5 24.7M77.9 117.1C50 90.2 23 62.2-4.5 34.7"/></g><g><path d="M196.9 7.1L77.1-112.6M196.9 17.1L77.1-102.6M196.9 27.1L77.1-92.6M196.9 37.1L77.1-82.6M196.9 47.1L77.1-72.6M196.9 57.1L77.1-62.6M196.9 67.1L77.1-52.6M196.9 77.1L77.1-42.6M196.9 87.1L77.1-32.6M196.9 97.1L77.1-22.6M196.9 107.1L77.1-12.6M196.9 117.1L77.1-2.6"/></g><g><path d="M77.9 245.1C50 218.2 23 190.2-4.5 162.7M77.9 255.1C50 228.2 23 200.2-4.5 172.7M77.9 265.1C50 238.2 23 210.2-4.5 182.7M196.9 245.1L77.1 125.4M196.9 255.1L77.1 135.4M196.9 265.1L77.1 145.4M196.9 275.1L77.1 155.4M196.9 285.1L77.1 165.4M196.9 295.1L77.1 175.4M191.4 299.6L77.2 185.4"/><g><path d="M77.9 126.1C50 99.2 23 71.2-4.5 43.7M77.9 136.1C50 109.2 23 81.2-4.5 53.7M77.9 146.1C50 119.2 23 91.2-4.5 63.7M77.9 156.1C50 129.2 23 101.2-4.5 73.7M77.9 166.1C50 139.2 23 111.2-4.5 83.7M77.9 176.1C50 149.2 23 121.2-4.5 93.7M77.9 186.1C50 159.2 23 131.2-4.5 103.7M77.9 196.1C50 169.2 23 141.2-4.5 113.7M77.9 206.1C50 179.2 23 151.2-4.5 123.7M77.9 216.1C50 189.2 23 161.2-4.5 133.7M77.9 226.1C50 199.2 23 171.2-4.5 143.7M77.9 236.1C50 209.2 23 181.2-4.5 153.7"/></g><g><path d="M196.9 126.1L77.1 6.4M196.9 136.1L77.1 16.4M196.9 146.1L77.1 26.4M196.9 156.1L77.1 36.4M196.9 166.1L77.1 46.4M196.9 176.1L77.1 56.4M196.9 186.1L77.1 66.4M196.9 196.1L77.1 76.4M196.9 206.1L77.1 86.4M196.9 216.1L77.1 96.4M196.9 226.1L77.1 106.4M196.9 236.1L77.1 116.4"/></g></g><g><path d="M77.9 126.1C50 99.2 23 71.2-4.5 43.7M77.9 136.1C50 109.2 23 81.2-4.5 53.7M77.9 146.1C50 119.2 23 91.2-4.5 63.7M77.9 156.1C50 129.2 23 101.2-4.5 73.7M77.9 166.1C50 139.2 23 111.2-4.5 83.7M77.9 176.1C50 149.2 23 121.2-4.5 93.7M77.9 186.1C50 159.2 23 131.2-4.5 103.7M77.9 196.1C50 169.2 23 141.2-4.5 113.7M77.9 206.1C50 179.2 23 151.2-4.5 123.7M77.9 216.1C50 189.2 23 161.2-4.5 133.7M77.9 226.1C50 199.2 23 171.2-4.5 143.7M77.9 236.1C50 209.2 23 181.2-4.5 153.7"/><g><path d="M196.9 126.1L77.1 6.4M196.9 136.1L77.1 16.4M196.9 146.1L77.1 26.4M196.9 156.1L77.1 36.4M196.9 166.1L77.1 46.4M196.9 176.1L77.1 56.4M196.9 186.1L77.1 66.4M196.9 196.1L77.1 76.4M196.9 206.1L77.1 86.4M196.9 216.1L77.1 96.4M196.9 226.1L77.1 106.4M196.9 236.1L77.1 116.4"/></g><g><path d="M315.9 126.1L196.1 6.4M315.9 136.1L196.1 16.4M315.9 146.1L196.1 26.4M315.9 156.1L196.1 36.4M315.9 166.1L196.1 46.4M315.9 176.1L196.1 56.4M315.9 186.1L196.1 66.4M315.9 196.1L196.1 76.4M315.9 206.1L196.1 86.4M315.9 216.1L196.1 96.4M315.9 226.1L196.1 106.4M315.9 236.1L196.1 116.4"/></g><g><path d="M77.9 7.1C50-19.8 23-47.8-4.5-75.2M77.9 17.1C50-9.8 23-37.8-4.5-65.2M77.9 27.1C50 .2 23-27.8-4.5-55.2M77.9 37.1C50 10.2 23-17.8-4.5-45.2M77.9 47.1C50 20.2 23-7.8-4.5-35.2M77.9 57.1C50 30.2 23 2.2-4.5-25.2M77.9 67.1C50 40.2 23 12.2-4.5-15.2M77.9 77.1C50 50.2 23 22.2-4.5-5.2M77.9 87.1C50 60.2 23 32.2-4.5 4.7M77.9 97.1C50 70.2 23 42.2-4.5 14.7M77.9 107.1C50 80.2 23 52.2-4.5 24.7M77.9 117.1C50 90.2 23 62.2-4.5 34.7"/></g><g><path d="M196.9 7.1L77.1-112.6M196.9 17.1L77.1-102.6M196.9 27.1L77.1-92.6M196.9 37.1L77.1-82.6M196.9 47.1L77.1-72.6M196.9 57.1L77.1-62.6M196.9 67.1L77.1-52.6M196.9 77.1L77.1-42.6M196.9 87.1L77.1-32.6M196.9 97.1L77.1-22.6M196.9 107.1L77.1-12.6M196.9 117.1L77.1-2.6"/></g><g><path d="M315.9 7.1L196.1-112.6M315.9 17.1L196.1-102.6M315.9 27.1L196.1-92.6M315.9 37.1L196.1-82.6M315.9 47.1L196.1-72.6M315.9 57.1L196.1-62.6M315.9 67.1L196.1-52.6M315.9 77.1L196.1-42.6M315.9 87.1L196.1-32.6M315.9 97.1L196.1-22.6M315.9 107.1L196.1-12.6M315.9 117.1L196.1-2.6"/></g></g><g><path d="M77.9 245.1C50 218.2 23 190.2-4.5 162.7M77.9 255.1C50 228.2 23 200.2-4.5 172.7M77.9 265.1C50 238.2 23 210.2-4.5 182.7M196.9 245.1L77.1 125.4M196.9 255.1L77.1 135.4M196.9 265.1L77.1 145.4M196.9 275.1L77.1 155.4M196.9 285.1L77.1 165.4M196.9 295.1L77.1 175.4M191.4 299.6L77.2 185.4"/><g><path d="M315.9 245.1L196.1 125.4M315.9 255.1L196.1 135.4M315.9 265.1L196.1 145.4M315.9 275.1L196.1 155.4M315.9 285.1L196.1 165.4M315.9 295.1L196.1 175.4M310.4 299.6L196.2 185.4"/></g><g><path d="M77.9 126.1C50 99.2 23 71.2-4.5 43.7M77.9 136.1C50 109.2 23 81.2-4.5 53.7M77.9 146.1C50 119.2 23 91.2-4.5 63.7M77.9 156.1C50 129.2 23 101.2-4.5 73.7M77.9 166.1C50 139.2 23 111.2-4.5 83.7M77.9 176.1C50 149.2 23 121.2-4.5 93.7M77.9 186.1C50 159.2 23 131.2-4.5 103.7M77.9 196.1C50 169.2 23 141.2-4.5 113.7M77.9 206.1C50 179.2 23 151.2-4.5 123.7M77.9 216.1C50 189.2 23 161.2-4.5 133.7M77.9 226.1C50 199.2 23 171.2-4.5 143.7M77.9 236.1C50 209.2 23 181.2-4.5 153.7"/></g><g><path d="M196.9 126.1L77.1 6.4M196.9 136.1L77.1 16.4M196.9 146.1L77.1 26.4M196.9 156.1L77.1 36.4M196.9 166.1L77.1 46.4M196.9 176.1L77.1 56.4M196.9 186.1L77.1 66.4M196.9 196.1L77.1 76.4M196.9 206.1L77.1 86.4M196.9 216.1L77.1 96.4M196.9 226.1L77.1 106.4M196.9 236.1L77.1 116.4"/></g><g><path d="M315.9 126.1L196.1 6.4M315.9 136.1L196.1 16.4M315.9 146.1L196.1 26.4M315.9 156.1L196.1 36.4M315.9 166.1L196.1 46.4M315.9 176.1L196.1 56.4M315.9 186.1L196.1 66.4M315.9 196.1L196.1 76.4M315.9 206.1L196.1 86.4M315.9 216.1L196.1 96.4M315.9 226.1L196.1 106.4M315.9 236.1L196.1 116.4"/></g></g><g><path d="M196.9 126.1L77.1 6.4M196.9 136.1L77.1 16.4M196.9 146.1L77.1 26.4M196.9 156.1L77.1 36.4M196.9 166.1L77.1 46.4M196.9 176.1L77.1 56.4M196.9 186.1L77.1 66.4M196.9 196.1L77.1 76.4M196.9 206.1L77.1 86.4M196.9 216.1L77.1 96.4M196.9 226.1L77.1 106.4M196.9 236.1L77.1 116.4"/><g><path d="M315.9 126.1L196.1 6.4M315.9 136.1L196.1 16.4M315.9 146.1L196.1 26.4M315.9 156.1L196.1 36.4M315.9 166.1L196.1 46.4M315.9 176.1L196.1 56.4M315.9 186.1L196.1 66.4M315.9 196.1L196.1 76.4M315.9 206.1L196.1 86.4M315.9 216.1L196.1 96.4M315.9 226.1L196.1 106.4M315.9 236.1L196.1 116.4"/></g><g><path d="M434.9 126.1L315.1 6.4M434.9 136.1L315.1 16.4M434.9 146.1L315.1 26.4M434.9 156.1L315.1 36.4M434.9 166.1L315.1 46.4M434.9 176.1L315.1 56.4M434.9 186.1L315.1 66.4M434.9 196.1L315.1 76.4M434.9 206.1L315.1 86.4M434.9 216.1L315.1 96.4M434.9 226.1L315.1 106.4M434.9 236.1L315.1 116.4"/></g><g><path d="M196.9 7.1L77.1-112.6M196.9 17.1L77.1-102.6M196.9 27.1L77.1-92.6M196.9 37.1L77.1-82.6M196.9 47.1L77.1-72.6M196.9 57.1L77.1-62.6M196.9 67.1L77.1-52.6M196.9 77.1L77.1-42.6M196.9 87.1L77.1-32.6M196.9 97.1L77.1-22.6M196.9 107.1L77.1-12.6M196.9 117.1L77.1-2.6"/></g><g><path d="M315.9 7.1L196.1-112.6M315.9 17.1L196.1-102.6M315.9 27.1L196.1-92.6M315.9 37.1L196.1-82.6M315.9 47.1L196.1-72.6M315.9 57.1L196.1-62.6M315.9 67.1L196.1-52.6M315.9 77.1L196.1-42.6M315.9 87.1L196.1-32.6M315.9 97.1L196.1-22.6M315.9 107.1L196.1-12.6M315.9 117.1L196.1-2.6"/></g><g><path d="M434.9 7.1L315.1-112.6M434.9 17.1L315.1-102.6M434.9 27.1L315.1-92.6M434.9 37.1L315.1-82.6M434.9 47.1L315.1-72.6M434.9 57.1L315.1-62.6M434.9 67.1L315.1-52.6M434.9 77.1L315.1-42.6M434.9 87.1L315.1-32.6M434.9 97.1L315.1-22.6M434.9 107.1L315.1-12.6M434.9 117.1L315.1-2.6"/></g></g><g><path d="M196.9 245.1L77.1 125.4M196.9 255.1L77.1 135.4M196.9 265.1L77.1 145.4M196.9 275.1L77.1 155.4M196.9 285.1L77.1 165.4M196.9 295.1L77.1 175.4M191.4 299.6L77.2 185.4"/><g><path d="M315.9 245.1L196.1 125.4M315.9 255.1L196.1 135.4M315.9 265.1L196.1 145.4M315.9 275.1L196.1 155.4M315.9 285.1L196.1 165.4M315.9 295.1L196.1 175.4M310.4 299.6L196.2 185.4"/></g><g><path d="M434.9 245.1L315.1 125.4M434.9 255.1L315.1 135.4M434.9 265.1L315.1 145.4M434.9 275.1L315.1 155.4M434.9 285.1L315.1 165.4M434.9 295.1L315.1 175.4M429.4 299.6L315.2 185.4"/></g><g><path d="M196.9 126.1L77.1 6.4M196.9 136.1L77.1 16.4M196.9 146.1L77.1 26.4M196.9 156.1L77.1 36.4M196.9 166.1L77.1 46.4M196.9 176.1L77.1 56.4M196.9 186.1L77.1 66.4M196.9 196.1L77.1 76.4M196.9 206.1L77.1 86.4M196.9 216.1L77.1 96.4M196.9 226.1L77.1 106.4M196.9 236.1L77.1 116.4"/></g><g><path d="M315.9 126.1L196.1 6.4M315.9 136.1L196.1 16.4M315.9 146.1L196.1 26.4M315.9 156.1L196.1 36.4M315.9 166.1L196.1 46.4M315.9 176.1L196.1 56.4M315.9 186.1L196.1 66.4M315.9 196.1L196.1 76.4M315.9 206.1L196.1 86.4M315.9 216.1L196.1 96.4M315.9 226.1L196.1 106.4M315.9 236.1L196.1 116.4"/></g><g><path d="M434.9 126.1L315.1 6.4M434.9 136.1L315.1 16.4M434.9 146.1L315.1 26.4M434.9 156.1L315.1 36.4M434.9 166.1L315.1 46.4M434.9 176.1L315.1 56.4M434.9 186.1L315.1 66.4M434.9 196.1L315.1 76.4M434.9 206.1L315.1 86.4M434.9 216.1L315.1 96.4M434.9 226.1L315.1 106.4M434.9 236.1L315.1 116.4"/></g></g><g><path d="M315.9 126.1L196.1 6.4M315.9 136.1L196.1 16.4M315.9 146.1L196.1 26.4M315.9 156.1L196.1 36.4M315.9 166.1L196.1 46.4M315.9 176.1L196.1 56.4M315.9 186.1L196.1 66.4M315.9 196.1L196.1 76.4M315.9 206.1L196.1 86.4M315.9 216.1L196.1 96.4M315.9 226.1L196.1 106.4M315.9 236.1L196.1 116.4"/><g><path d="M434.9 126.1L315.1 6.4M434.9 136.1L315.1 16.4M434.9 146.1L315.1 26.4M434.9 156.1L315.1 36.4M434.9 166.1L315.1 46.4M434.9 176.1L315.1 56.4M434.9 186.1L315.1 66.4M434.9 196.1L315.1 76.4M434.9 206.1L315.1 86.4M434.9 216.1L315.1 96.4M434.9 226.1L315.1 106.4M434.9 236.1L315.1 116.4"/></g><g><path d="M553.9 126.1L434.1 6.4M553.9 136.1L434.1 16.4M553.9 146.1L434.1 26.4M553.9 156.1L434.1 36.4M553.9 166.1L434.1 46.4M553.9 176.1L434.1 56.4M553.9 186.1L434.1 66.4M553.9 196.1L434.1 76.4M553.9 206.1L434.1 86.4M553.9 216.1L434.1 96.4M553.9 226.1L434.1 106.4M553.9 236.1L434.1 116.4"/></g><g><path d="M315.9 7.1L196.1-112.6M315.9 17.1L196.1-102.6M315.9 27.1L196.1-92.6M315.9 37.1L196.1-82.6M315.9 47.1L196.1-72.6M315.9 57.1L196.1-62.6M315.9 67.1L196.1-52.6M315.9 77.1L196.1-42.6M315.9 87.1L196.1-32.6M315.9 97.1L196.1-22.6M315.9 107.1L196.1-12.6M315.9 117.1L196.1-2.6"/></g><g><path d="M434.9 7.1L315.1-112.6M434.9 17.1L315.1-102.6M434.9 27.1L315.1-92.6M434.9 37.1L315.1-82.6M434.9 47.1L315.1-72.6M434.9 57.1L315.1-62.6M434.9 67.1L315.1-52.6M434.9 77.1L315.1-42.6M434.9 87.1L315.1-32.6M434.9 97.1L315.1-22.6M434.9 107.1L315.1-12.6M434.9 117.1L315.1-2.6"/></g><g><path d="M553.9 7.1L434.1-112.6M553.9 17.1L434.1-102.6M553.9 27.1L434.1-92.6M553.9 37.1L434.1-82.6M553.9 47.1L434.1-72.6M553.9 57.1L434.1-62.6M553.9 67.1L434.1-52.6M553.9 77.1L434.1-42.6M553.9 87.1L434.1-32.6M553.9 97.1L434.1-22.6M553.9 107.1L434.1-12.6M553.9 117.1L434.1-2.6"/></g></g><g><path d="M315.9 245.1L196.1 125.4M315.9 255.1L196.1 135.4M315.9 265.1L196.1 145.4M315.9 275.1L196.1 155.4M315.9 285.1L196.1 165.4M315.9 295.1L196.1 175.4M310.4 299.6L196.2 185.4"/><g><path d="M434.9 245.1L315.1 125.4M434.9 255.1L315.1 135.4M434.9 265.1L315.1 145.4M434.9 275.1L315.1 155.4M434.9 285.1L315.1 165.4M434.9 295.1L315.1 175.4M429.4 299.6L315.2 185.4"/></g><g><path d="M553.9 245.1L434.1 125.4M553.9 255.1L434.1 135.4M553.9 265.1L434.1 145.4M553.9 275.1L434.1 155.4M553.9 285.1L434.1 165.4M553.9 295.1L434.1 175.4M548.4 299.6L434.2 185.4"/></g><g><path d="M315.9 126.1L196.1 6.4M315.9 136.1L196.1 16.4M315.9 146.1L196.1 26.4M315.9 156.1L196.1 36.4M315.9 166.1L196.1 46.4M315.9 176.1L196.1 56.4M315.9 186.1L196.1 66.4M315.9 196.1L196.1 76.4M315.9 206.1L196.1 86.4M315.9 216.1L196.1 96.4M315.9 226.1L196.1 106.4M315.9 236.1L196.1 116.4"/></g><g><path d="M434.9 126.1L315.1 6.4M434.9 136.1L315.1 16.4M434.9 146.1L315.1 26.4M434.9 156.1L315.1 36.4M434.9 166.1L315.1 46.4M434.9 176.1L315.1 56.4M434.9 186.1L315.1 66.4M434.9 196.1L315.1 76.4M434.9 206.1L315.1 86.4M434.9 216.1L315.1 96.4M434.9 226.1L315.1 106.4M434.9 236.1L315.1 116.4"/></g><g><path d="M553.9 126.1L434.1 6.4M553.9 136.1L434.1 16.4M553.9 146.1L434.1 26.4M553.9 156.1L434.1 36.4M553.9 166.1L434.1 46.4M553.9 176.1L434.1 56.4M553.9 186.1L434.1 66.4M553.9 196.1L434.1 76.4M553.9 206.1L434.1 86.4M553.9 216.1L434.1 96.4M553.9 226.1L434.1 106.4M553.9 236.1L434.1 116.4"/></g></g><g><path d="M434.9 126.1L315.1 6.4M434.9 136.1L315.1 16.4M434.9 146.1L315.1 26.4M434.9 156.1L315.1 36.4M434.9 166.1L315.1 46.4M434.9 176.1L315.1 56.4M434.9 186.1L315.1 66.4M434.9 196.1L315.1 76.4M434.9 206.1L315.1 86.4M434.9 216.1L315.1 96.4M434.9 226.1L315.1 106.4M434.9 236.1L315.1 116.4"/><g><path d="M553.9 126.1L434.1 6.4M553.9 136.1L434.1 16.4M553.9 146.1L434.1 26.4M553.9 156.1L434.1 36.4M553.9 166.1L434.1 46.4M553.9 176.1L434.1 56.4M553.9 186.1L434.1 66.4M553.9 196.1L434.1 76.4M553.9 206.1L434.1 86.4M553.9 216.1L434.1 96.4M553.9 226.1L434.1 106.4M553.9 236.1L434.1 116.4"/></g><g><path d="M672.9 126.1L553.1 6.4M672.9 136.1L553.1 16.4M672.9 146.1L553.1 26.4M672.9 156.1L553.1 36.4M672.9 166.1L553.1 46.4M672.9 176.1L553.1 56.4M672.9 186.1L553.1 66.4M672.9 196.1L553.1 76.4M672.9 206.1L553.1 86.4M672.9 216.1L553.1 96.4M672.9 226.1L553.1 106.4M672.9 236.1L553.1 116.4"/></g><g><path d="M434.9 7.1L315.1-112.6M434.9 17.1L315.1-102.6M434.9 27.1L315.1-92.6M434.9 37.1L315.1-82.6M434.9 47.1L315.1-72.6M434.9 57.1L315.1-62.6M434.9 67.1L315.1-52.6M434.9 77.1L315.1-42.6M434.9 87.1L315.1-32.6M434.9 97.1L315.1-22.6M434.9 107.1L315.1-12.6M434.9 117.1L315.1-2.6"/></g><g><path d="M553.9 7.1L434.1-112.6M553.9 17.1L434.1-102.6M553.9 27.1L434.1-92.6M553.9 37.1L434.1-82.6M553.9 47.1L434.1-72.6M553.9 57.1L434.1-62.6M553.9 67.1L434.1-52.6M553.9 77.1L434.1-42.6M553.9 87.1L434.1-32.6M553.9 97.1L434.1-22.6M553.9 107.1L434.1-12.6M553.9 117.1L434.1-2.6"/></g><g><path d="M672.9 7.1L553.1-112.6M672.9 17.1L553.1-102.6M672.9 27.1L553.1-92.6M672.9 37.1L553.1-82.6M672.9 47.1L553.1-72.6M672.9 57.1L553.1-62.6M672.9 67.1L553.1-52.6M672.9 77.1L553.1-42.6M672.9 87.1L553.1-32.6M672.9 97.1L553.1-22.6M672.9 107.1L553.1-12.6M672.9 117.1L553.1-2.6"/></g></g><g><path d="M434.9 245.1L315.1 125.4M434.9 255.1L315.1 135.4M434.9 265.1L315.1 145.4M434.9 275.1L315.1 155.4M434.9 285.1L315.1 165.4M434.9 295.1L315.1 175.4M429.4 299.6L315.2 185.4"/><g><path d="M553.9 245.1L434.1 125.4M553.9 255.1L434.1 135.4M553.9 265.1L434.1 145.4M553.9 275.1L434.1 155.4M553.9 285.1L434.1 165.4M553.9 295.1L434.1 175.4M548.4 299.6L434.2 185.4"/></g><g><path d="M672.9 245.1L553.1 125.4M672.9 255.1L553.1 135.4M672.9 265.1L553.1 145.4M672.9 275.1L553.1 155.4M672.9 285.1L553.1 165.4M672.9 295.1L553.1 175.4M668 300.3c-38-38.1-77-77.1-114.9-114.9"/></g><g><path d="M434.9 126.1L315.1 6.4M434.9 136.1L315.1 16.4M434.9 146.1L315.1 26.4M434.9 156.1L315.1 36.4M434.9 166.1L315.1 46.4M434.9 176.1L315.1 56.4M434.9 186.1L315.1 66.4M434.9 196.1L315.1 76.4M434.9 206.1L315.1 86.4M434.9 216.1L315.1 96.4M434.9 226.1L315.1 106.4M434.9 236.1L315.1 116.4"/></g><g><path d="M553.9 126.1L434.1 6.4M553.9 136.1L434.1 16.4M553.9 146.1L434.1 26.4M553.9 156.1L434.1 36.4M553.9 166.1L434.1 46.4M553.9 176.1L434.1 56.4M553.9 186.1L434.1 66.4M553.9 196.1L434.1 76.4M553.9 206.1L434.1 86.4M553.9 216.1L434.1 96.4M553.9 226.1L434.1 106.4M553.9 236.1L434.1 116.4"/></g><g><path d="M672.9 126.1L553.1 6.4M672.9 136.1L553.1 16.4M672.9 146.1L553.1 26.4M672.9 156.1L553.1 36.4M672.9 166.1L553.1 46.4M672.9 176.1L553.1 56.4M672.9 186.1L553.1 66.4M672.9 196.1L553.1 76.4M672.9 206.1L553.1 86.4M672.9 216.1L553.1 96.4M672.9 226.1L553.1 106.4M672.9 236.1L553.1 116.4"/></g></g><g><path d="M553.9 126.1L434.1 6.4M553.9 136.1L434.1 16.4M553.9 146.1L434.1 26.4M553.9 156.1L434.1 36.4M553.9 166.1L434.1 46.4M553.9 176.1L434.1 56.4M553.9 186.1L434.1 66.4M553.9 196.1L434.1 76.4M553.9 206.1L434.1 86.4M553.9 216.1L434.1 96.4M553.9 226.1L434.1 106.4M553.9 236.1L434.1 116.4"/><g><path d="M672.9 126.1L553.1 6.4M672.9 136.1L553.1 16.4M672.9 146.1L553.1 26.4M672.9 156.1L553.1 36.4M672.9 166.1L553.1 46.4M672.9 176.1L553.1 56.4M672.9 186.1L553.1 66.4M672.9 196.1L553.1 76.4M672.9 206.1L553.1 86.4M672.9 216.1L553.1 96.4M672.9 226.1L553.1 106.4M672.9 236.1L553.1 116.4"/></g><g><path d="M791.9 126.1L672.1 6.4M791.9 136.1L672.1 16.4M791.9 146.1L672.1 26.4M791.9 156.1L672.1 36.4M791.9 166.1L672.1 46.4M791.9 176.1L672.1 56.4M791.9 186.1L672.1 66.4M791.9 196.1L672.1 76.4M791.9 206.1L672.1 86.4M791.9 216.1L672.1 96.4M791.9 226.1L672.1 106.4M791.9 236.1L672.1 116.4"/></g><g><path d="M553.9 7.1L434.1-112.6M553.9 17.1L434.1-102.6M553.9 27.1L434.1-92.6M553.9 37.1L434.1-82.6M553.9 47.1L434.1-72.6M553.9 57.1L434.1-62.6M553.9 67.1L434.1-52.6M553.9 77.1L434.1-42.6M553.9 87.1L434.1-32.6M553.9 97.1L434.1-22.6M553.9 107.1L434.1-12.6M553.9 117.1L434.1-2.6"/></g><g><path d="M672.9 7.1L553.1-112.6M672.9 17.1L553.1-102.6M672.9 27.1L553.1-92.6M672.9 37.1L553.1-82.6M672.9 47.1L553.1-72.6M672.9 57.1L553.1-62.6M672.9 67.1L553.1-52.6M672.9 77.1L553.1-42.6M672.9 87.1L553.1-32.6M672.9 97.1L553.1-22.6M672.9 107.1L553.1-12.6M672.9 117.1L553.1-2.6"/></g><g><path d="M791.9 7.1L672.1-112.6M791.9 17.1L672.1-102.6M791.9 27.1L672.1-92.6M791.9 37.1L672.1-82.6M791.9 47.1L672.1-72.6M791.9 57.1L672.1-62.6M791.9 67.1L672.1-52.6M791.9 77.1L672.1-42.6M791.9 87.1L672.1-32.6M791.9 97.1L672.1-22.6M791.9 107.1L672.1-12.6M791.9 117.1L672.1-2.6"/></g></g><g><path d="M553.9 245.1L434.1 125.4M553.9 255.1L434.1 135.4M553.9 265.1L434.1 145.4M553.9 275.1L434.1 155.4M553.9 285.1L434.1 165.4M553.9 295.1L434.1 175.4M548.4 299.6L434.2 185.4"/><g><path d="M672.9 245.1L553.1 125.4M672.9 255.1L553.1 135.4M672.9 265.1L553.1 145.4M672.9 275.1L553.1 155.4M672.9 285.1L553.1 165.4M672.9 295.1L553.1 175.4M668 300.3c-38-38.1-77-77.1-114.9-114.9"/></g><g><path d="M791.9 245.1L672.1 125.4M791.9 255.1L672.1 135.4M791.9 265.1L672.1 145.4M791.9 275.1L672.1 155.4M791.9 285.1L672.1 165.4M791.9 295.1L672.1 175.4M787.7 301C749 262.2 711 224.2 672.1 185.4"/></g><g><path d="M553.9 126.1L434.1 6.4M553.9 136.1L434.1 16.4M553.9 146.1L434.1 26.4M553.9 156.1L434.1 36.4M553.9 166.1L434.1 46.4M553.9 176.1L434.1 56.4M553.9 186.1L434.1 66.4M553.9 196.1L434.1 76.4M553.9 206.1L434.1 86.4M553.9 216.1L434.1 96.4M553.9 226.1L434.1 106.4M553.9 236.1L434.1 116.4"/></g><g><path d="M672.9 126.1L553.1 6.4M672.9 136.1L553.1 16.4M672.9 146.1L553.1 26.4M672.9 156.1L553.1 36.4M672.9 166.1L553.1 46.4M672.9 176.1L553.1 56.4M672.9 186.1L553.1 66.4M672.9 196.1L553.1 76.4M672.9 206.1L553.1 86.4M672.9 216.1L553.1 96.4M672.9 226.1L553.1 106.4M672.9 236.1L553.1 116.4"/></g><g><path d="M791.9 126.1L672.1 6.4M791.9 136.1L672.1 16.4M791.9 146.1L672.1 26.4M791.9 156.1L672.1 36.4M791.9 166.1L672.1 46.4M791.9 176.1L672.1 56.4M791.9 186.1L672.1 66.4M791.9 196.1L672.1 76.4M791.9 206.1L672.1 86.4M791.9 216.1L672.1 96.4M791.9 226.1L672.1 106.4M791.9 236.1L672.1 116.4"/></g></g></g><g opacity=".9"><path d="M434.9 7.1L315.1-112.6M434.9 17.1L315.1-102.6M434.9 27.1L315.1-92.6M434.9 37.1L315.1-82.6M434.9 47.1L315.1-72.6M434.9 57.1L315.1-62.6M434.9 67.1L315.1-52.6M434.9 77.1L315.1-42.6M434.9 87.1L315.1-32.6M434.9 97.1L315.1-22.6M434.9 107.1L315.1-12.6M434.9 117.1L315.1-2.6"/><g><path d="M553.9 7.1L434.1-112.6M553.9 17.1L434.1-102.6M553.9 27.1L434.1-92.6M553.9 37.1L434.1-82.6M553.9 47.1L434.1-72.6M553.9 57.1L434.1-62.6M553.9 67.1L434.1-52.6M553.9 77.1L434.1-42.6M553.9 87.1L434.1-32.6M553.9 97.1L434.1-22.6M553.9 107.1L434.1-12.6M553.9 117.1L434.1-2.6"/></g><g><path d="M672.9 7.1L553.1-112.6M672.9 17.1L553.1-102.6M672.9 27.1L553.1-92.6M672.9 37.1L553.1-82.6M672.9 47.1L553.1-72.6M672.9 57.1L553.1-62.6M672.9 67.1L553.1-52.6M672.9 77.1L553.1-42.6M672.9 87.1L553.1-32.6M672.9 97.1L553.1-22.6M672.9 107.1L553.1-12.6M672.9 117.1L553.1-2.6"/></g><g><path d="M434.9 126.1L315.1 6.4M434.9 136.1L315.1 16.4M434.9 146.1L315.1 26.4M434.9 156.1L315.1 36.4M434.9 166.1L315.1 46.4M434.9 176.1L315.1 56.4M434.9 186.1L315.1 66.4M434.9 196.1L315.1 76.4M434.9 206.1L315.1 86.4M434.9 216.1L315.1 96.4M434.9 226.1L315.1 106.4M434.9 236.1L315.1 116.4"/><g><path d="M553.9 126.1L434.1 6.4M553.9 136.1L434.1 16.4M553.9 146.1L434.1 26.4M553.9 156.1L434.1 36.4M553.9 166.1L434.1 46.4M553.9 176.1L434.1 56.4M553.9 186.1L434.1 66.4M553.9 196.1L434.1 76.4M553.9 206.1L434.1 86.4M553.9 216.1L434.1 96.4M553.9 226.1L434.1 106.4M553.9 236.1L434.1 116.4"/></g><g><path d="M672.9 126.1L553.1 6.4M672.9 136.1L553.1 16.4M672.9 146.1L553.1 26.4M672.9 156.1L553.1 36.4M672.9 166.1L553.1 46.4M672.9 176.1L553.1 56.4M672.9 186.1L553.1 66.4M672.9 196.1L553.1 76.4M672.9 206.1L553.1 86.4M672.9 216.1L553.1 96.4M672.9 226.1L553.1 106.4M672.9 236.1L553.1 116.4"/></g><g><path d="M434.9 7.1L315.1-112.6M434.9 17.1L315.1-102.6M434.9 27.1L315.1-92.6M434.9 37.1L315.1-82.6M434.9 47.1L315.1-72.6M434.9 57.1L315.1-62.6M434.9 67.1L315.1-52.6M434.9 77.1L315.1-42.6M434.9 87.1L315.1-32.6M434.9 97.1L315.1-22.6M434.9 107.1L315.1-12.6M434.9 117.1L315.1-2.6"/></g><g><path d="M553.9 7.1L434.1-112.6M553.9 17.1L434.1-102.6M553.9 27.1L434.1-92.6M553.9 37.1L434.1-82.6M553.9 47.1L434.1-72.6M553.9 57.1L434.1-62.6M553.9 67.1L434.1-52.6M553.9 77.1L434.1-42.6M553.9 87.1L434.1-32.6M553.9 97.1L434.1-22.6M553.9 107.1L434.1-12.6M553.9 117.1L434.1-2.6"/></g><g><path d="M672.9 7.1L553.1-112.6M672.9 17.1L553.1-102.6M672.9 27.1L553.1-92.6M672.9 37.1L553.1-82.6M672.9 47.1L553.1-72.6M672.9 57.1L553.1-62.6M672.9 67.1L553.1-52.6M672.9 77.1L553.1-42.6M672.9 87.1L553.1-32.6M672.9 97.1L553.1-22.6M672.9 107.1L553.1-12.6M672.9 117.1L553.1-2.6"/></g></g><g><path d="M553.9 7.1L434.1-112.6M553.9 17.1L434.1-102.6M553.9 27.1L434.1-92.6M553.9 37.1L434.1-82.6M553.9 47.1L434.1-72.6M553.9 57.1L434.1-62.6M553.9 67.1L434.1-52.6M553.9 77.1L434.1-42.6M553.9 87.1L434.1-32.6M553.9 97.1L434.1-22.6M553.9 107.1L434.1-12.6M553.9 117.1L434.1-2.6"/><g><path d="M672.9 7.1L553.1-112.6M672.9 17.1L553.1-102.6M672.9 27.1L553.1-92.6M672.9 37.1L553.1-82.6M672.9 47.1L553.1-72.6M672.9 57.1L553.1-62.6M672.9 67.1L553.1-52.6M672.9 77.1L553.1-42.6M672.9 87.1L553.1-32.6M672.9 97.1L553.1-22.6M672.9 107.1L553.1-12.6M672.9 117.1L553.1-2.6"/></g><g><path d="M791.9 7.1L672.1-112.6M791.9 17.1L672.1-102.6M791.9 27.1L672.1-92.6M791.9 37.1L672.1-82.6M791.9 47.1L672.1-72.6M791.9 57.1L672.1-62.6M791.9 67.1L672.1-52.6M791.9 77.1L672.1-42.6M791.9 87.1L672.1-32.6M791.9 97.1L672.1-22.6M791.9 107.1L672.1-12.6M791.9 117.1L672.1-2.6"/></g></g><g><path d="M553.9 126.1L434.1 6.4M553.9 136.1L434.1 16.4M553.9 146.1L434.1 26.4M553.9 156.1L434.1 36.4M553.9 166.1L434.1 46.4M553.9 176.1L434.1 56.4M553.9 186.1L434.1 66.4M553.9 196.1L434.1 76.4M553.9 206.1L434.1 86.4M553.9 216.1L434.1 96.4M553.9 226.1L434.1 106.4M553.9 236.1L434.1 116.4"/><g><path d="M672.9 126.1L553.1 6.4M672.9 136.1L553.1 16.4M672.9 146.1L553.1 26.4M672.9 156.1L553.1 36.4M672.9 166.1L553.1 46.4M672.9 176.1L553.1 56.4M672.9 186.1L553.1 66.4M672.9 196.1L553.1 76.4M672.9 206.1L553.1 86.4M672.9 216.1L553.1 96.4M672.9 226.1L553.1 106.4M672.9 236.1L553.1 116.4"/></g><g><path d="M791.9 126.1L672.1 6.4M791.9 136.1L672.1 16.4M791.9 146.1L672.1 26.4M791.9 156.1L672.1 36.4M791.9 166.1L672.1 46.4M791.9 176.1L672.1 56.4M791.9 186.1L672.1 66.4M791.9 196.1L672.1 76.4M791.9 206.1L672.1 86.4M791.9 216.1L672.1 96.4M791.9 226.1L672.1 106.4M791.9 236.1L672.1 116.4"/></g><g><path d="M553.9 7.1L434.1-112.6M553.9 17.1L434.1-102.6M553.9 27.1L434.1-92.6M553.9 37.1L434.1-82.6M553.9 47.1L434.1-72.6M553.9 57.1L434.1-62.6M553.9 67.1L434.1-52.6M553.9 77.1L434.1-42.6M553.9 87.1L434.1-32.6M553.9 97.1L434.1-22.6M553.9 107.1L434.1-12.6M553.9 117.1L434.1-2.6"/></g><g><path d="M672.9 7.1L553.1-112.6M672.9 17.1L553.1-102.6M672.9 27.1L553.1-92.6M672.9 37.1L553.1-82.6M672.9 47.1L553.1-72.6M672.9 57.1L553.1-62.6M672.9 67.1L553.1-52.6M672.9 77.1L553.1-42.6M672.9 87.1L553.1-32.6M672.9 97.1L553.1-22.6M672.9 107.1L553.1-12.6M672.9 117.1L553.1-2.6"/></g><g><path d="M791.9 7.1L672.1-112.6M791.9 17.1L672.1-102.6M791.9 27.1L672.1-92.6M791.9 37.1L672.1-82.6M791.9 47.1L672.1-72.6M791.9 57.1L672.1-62.6M791.9 67.1L672.1-52.6M791.9 77.1L672.1-42.6M791.9 87.1L672.1-32.6M791.9 97.1L672.1-22.6M791.9 107.1L672.1-12.6M791.9 117.1L672.1-2.6"/></g></g><g><path d="M672.9 7.1L553.1-112.6M672.9 17.1L553.1-102.6M672.9 27.1L553.1-92.6M672.9 37.1L553.1-82.6M672.9 47.1L553.1-72.6M672.9 57.1L553.1-62.6M672.9 67.1L553.1-52.6M672.9 77.1L553.1-42.6M672.9 87.1L553.1-32.6M672.9 97.1L553.1-22.6M672.9 107.1L553.1-12.6M672.9 117.1L553.1-2.6"/><g><path d="M791.9 7.1L672.1-112.6M791.9 17.1L672.1-102.6M791.9 27.1L672.1-92.6M791.9 37.1L672.1-82.6M791.9 47.1L672.1-72.6M791.9 57.1L672.1-62.6M791.9 67.1L672.1-52.6M791.9 77.1L672.1-42.6M791.9 87.1L672.1-32.6M791.9 97.1L672.1-22.6M791.9 107.1L672.1-12.6M791.9 117.1L672.1-2.6"/></g><g><path d="M910.9 7.1L791.1-112.6M910.9 17.1L791.1-102.6M910.9 27.1L791.1-92.6M910.9 37.1L791.1-82.6M910.9 47.1L791.1-72.6M910.9 57.1L791.1-62.6M910.9 67.1L791.1-52.6M910.9 77.1L791.1-42.6M910.9 87.1L791.1-32.6M910.9 97.1L791.1-22.6M910.9 107.1L791.1-12.6M910.9 117.1L791.1-2.6"/></g></g><g><path d="M672.9 126.1L553.1 6.4M672.9 136.1L553.1 16.4M672.9 146.1L553.1 26.4M672.9 156.1L553.1 36.4M672.9 166.1L553.1 46.4M672.9 176.1L553.1 56.4M672.9 186.1L553.1 66.4M672.9 196.1L553.1 76.4M672.9 206.1L553.1 86.4M672.9 216.1L553.1 96.4M672.9 226.1L553.1 106.4M672.9 236.1L553.1 116.4"/><g><path d="M791.9 126.1L672.1 6.4M791.9 136.1L672.1 16.4M791.9 146.1L672.1 26.4M791.9 156.1L672.1 36.4M791.9 166.1L672.1 46.4M791.9 176.1L672.1 56.4M791.9 186.1L672.1 66.4M791.9 196.1L672.1 76.4M791.9 206.1L672.1 86.4M791.9 216.1L672.1 96.4M791.9 226.1L672.1 106.4M791.9 236.1L672.1 116.4"/></g><g><path d="M910.9 126.1L791.1 6.4M910.9 136.1L791.1 16.4M910.9 146.1L791.1 26.4M910.9 156.1L791.1 36.4M910.9 166.1L791.1 46.4M910.9 176.1L791.1 56.4M910.9 186.1L791.1 66.4M910.9 196.1L791.1 76.4M910.9 206.1L791.1 86.4M910.9 216.1L791.1 96.4M910.9 226.1L791.1 106.4M910.9 236.1L791.1 116.4"/></g><g><path d="M672.9 7.1L553.1-112.6M672.9 17.1L553.1-102.6M672.9 27.1L553.1-92.6M672.9 37.1L553.1-82.6M672.9 47.1L553.1-72.6M672.9 57.1L553.1-62.6M672.9 67.1L553.1-52.6M672.9 77.1L553.1-42.6M672.9 87.1L553.1-32.6M672.9 97.1L553.1-22.6M672.9 107.1L553.1-12.6M672.9 117.1L553.1-2.6"/></g><g><path d="M791.9 7.1L672.1-112.6M791.9 17.1L672.1-102.6M791.9 27.1L672.1-92.6M791.9 37.1L672.1-82.6M791.9 47.1L672.1-72.6M791.9 57.1L672.1-62.6M791.9 67.1L672.1-52.6M791.9 77.1L672.1-42.6M791.9 87.1L672.1-32.6M791.9 97.1L672.1-22.6M791.9 107.1L672.1-12.6M791.9 117.1L672.1-2.6"/></g><g><path d="M910.9 7.1L791.1-112.6M910.9 17.1L791.1-102.6M910.9 27.1L791.1-92.6M910.9 37.1L791.1-82.6M910.9 47.1L791.1-72.6M910.9 57.1L791.1-62.6M910.9 67.1L791.1-52.6M910.9 77.1L791.1-42.6M910.9 87.1L791.1-32.6M910.9 97.1L791.1-22.6M910.9 107.1L791.1-12.6M910.9 117.1L791.1-2.6"/></g></g><g><path d="M791.9 7.1L672.1-112.6M791.9 17.1L672.1-102.6M791.9 27.1L672.1-92.6M791.9 37.1L672.1-82.6M791.9 47.1L672.1-72.6M791.9 57.1L672.1-62.6M791.9 67.1L672.1-52.6M791.9 77.1L672.1-42.6M791.9 87.1L672.1-32.6M791.9 97.1L672.1-22.6M791.9 107.1L672.1-12.6M791.9 117.1L672.1-2.6"/><g><path d="M910.9 7.1L791.1-112.6M910.9 17.1L791.1-102.6M910.9 27.1L791.1-92.6M910.9 37.1L791.1-82.6M910.9 47.1L791.1-72.6M910.9 57.1L791.1-62.6M910.9 67.1L791.1-52.6M910.9 77.1L791.1-42.6M910.9 87.1L791.1-32.6M910.9 97.1L791.1-22.6M910.9 107.1L791.1-12.6M910.9 117.1L791.1-2.6"/></g><g><path d="M923 .3c-4-4.1-9-9.1-12.9-12.9M923 10.3c-4-4.1-9-9.1-12.9-12.9"/></g></g><g><path d="M791.9 126.1L672.1 6.4M791.9 136.1L672.1 16.4M791.9 146.1L672.1 26.4M791.9 156.1L672.1 36.4M791.9 166.1L672.1 46.4M791.9 176.1L672.1 56.4M791.9 186.1L672.1 66.4M791.9 196.1L672.1 76.4M791.9 206.1L672.1 86.4M791.9 216.1L672.1 96.4M791.9 226.1L672.1 106.4M791.9 236.1L672.1 116.4"/><g><path d="M910.9 126.1L791.1 6.4M910.9 136.1L791.1 16.4M910.9 146.1L791.1 26.4M910.9 156.1L791.1 36.4M910.9 166.1L791.1 46.4M910.9 176.1L791.1 56.4M910.9 186.1L791.1 66.4M910.9 196.1L791.1 76.4M910.9 206.1L791.1 86.4M910.9 216.1L791.1 96.4M910.9 226.1L791.1 106.4M910.9 236.1L791.1 116.4"/></g><g><path d="M923 19.3c-4-4.1-9-9.1-12.9-12.9M923 29.3c-4-4.1-9-9.1-12.9-12.9M923 39.3c-4-4.1-9-9.1-12.9-12.9M923 49.3c-4-4.1-9-9.1-12.9-12.9M923 59.3c-4-4.1-9-9.1-12.9-12.9M923 69.3c-4-4.1-9-9.1-12.9-12.9M923 79.3c-4-4.1-9-9.1-12.9-12.9M923 89.3c-4-4.1-9-9.1-12.9-12.9M923 99.3c-4-4.1-9-9.1-12.9-12.9M923 109.3c-4-4.1-9-9.1-12.9-12.9M923 119.3c-4-4.1-9-9.1-12.9-12.9M923 129.3c-4-4.1-9-9.1-12.9-12.9"/></g><g><path d="M791.9 7.1L672.1-112.6M791.9 17.1L672.1-102.6M791.9 27.1L672.1-92.6M791.9 37.1L672.1-82.6M791.9 47.1L672.1-72.6M791.9 57.1L672.1-62.6M791.9 67.1L672.1-52.6M791.9 77.1L672.1-42.6M791.9 87.1L672.1-32.6M791.9 97.1L672.1-22.6M791.9 107.1L672.1-12.6M791.9 117.1L672.1-2.6"/></g><g><path d="M910.9 7.1L791.1-112.6M910.9 17.1L791.1-102.6M910.9 27.1L791.1-92.6M910.9 37.1L791.1-82.6M910.9 47.1L791.1-72.6M910.9 57.1L791.1-62.6M910.9 67.1L791.1-52.6M910.9 77.1L791.1-42.6M910.9 87.1L791.1-32.6M910.9 97.1L791.1-22.6M910.9 107.1L791.1-12.6M910.9 117.1L791.1-2.6"/></g><g><path d="M923 .3c-4-4.1-9-9.1-12.9-12.9M923 10.3c-4-4.1-9-9.1-12.9-12.9"/></g></g><g><path d="M910.9 7.1L791.1-112.6M910.9 17.1L791.1-102.6M910.9 27.1L791.1-92.6M910.9 37.1L791.1-82.6M910.9 47.1L791.1-72.6M910.9 57.1L791.1-62.6M910.9 67.1L791.1-52.6M910.9 77.1L791.1-42.6M910.9 87.1L791.1-32.6M910.9 97.1L791.1-22.6M910.9 107.1L791.1-12.6M910.9 117.1L791.1-2.6"/><g><path d="M923 .3c-4-4.1-9-9.1-12.9-12.9M923 10.3c-4-4.1-9-9.1-12.9-12.9"/></g></g><g><path d="M910.9 126.1L791.1 6.4M910.9 136.1L791.1 16.4M910.9 146.1L791.1 26.4M910.9 156.1L791.1 36.4M910.9 166.1L791.1 46.4M910.9 176.1L791.1 56.4M910.9 186.1L791.1 66.4M910.9 196.1L791.1 76.4M910.9 206.1L791.1 86.4M910.9 216.1L791.1 96.4M910.9 226.1L791.1 106.4M910.9 236.1L791.1 116.4"/><g><path d="M923 19.3c-4-4.1-9-9.1-12.9-12.9M923 29.3c-4-4.1-9-9.1-12.9-12.9M923 39.3c-4-4.1-9-9.1-12.9-12.9M923 49.3c-4-4.1-9-9.1-12.9-12.9M923 59.3c-4-4.1-9-9.1-12.9-12.9M923 69.3c-4-4.1-9-9.1-12.9-12.9M923 79.3c-4-4.1-9-9.1-12.9-12.9M923 89.3c-4-4.1-9-9.1-12.9-12.9M923 99.3c-4-4.1-9-9.1-12.9-12.9M923 109.3c-4-4.1-9-9.1-12.9-12.9M923 119.3c-4-4.1-9-9.1-12.9-12.9M923 129.3c-4-4.1-9-9.1-12.9-12.9"/></g><g><path d="M910.9 7.1L791.1-112.6M910.9 17.1L791.1-102.6M910.9 27.1L791.1-92.6M910.9 37.1L791.1-82.6M910.9 47.1L791.1-72.6M910.9 57.1L791.1-62.6M910.9 67.1L791.1-52.6M910.9 77.1L791.1-42.6M910.9 87.1L791.1-32.6M910.9 97.1L791.1-22.6M910.9 107.1L791.1-12.6M910.9 117.1L791.1-2.6"/></g><g><path d="M923 .3c-4-4.1-9-9.1-12.9-12.9M923 10.3c-4-4.1-9-9.1-12.9-12.9"/></g></g></g><g opacity=".9"><path d="M77.9 126.1C50 99.2 23 71.2-4.5 43.7M77.9 136.1C50 109.2 23 81.2-4.5 53.7M77.9 146.1C50 119.2 23 91.2-4.5 63.7M77.9 156.1C50 129.2 23 101.2-4.5 73.7M77.9 166.1C50 139.2 23 111.2-4.5 83.7M77.9 176.1C50 149.2 23 121.2-4.5 93.7M77.9 186.1C50 159.2 23 131.2-4.5 103.7M77.9 196.1C50 169.2 23 141.2-4.5 113.7M77.9 206.1C50 179.2 23 151.2-4.5 123.7M77.9 216.1C50 189.2 23 161.2-4.5 133.7M77.9 226.1C50 199.2 23 171.2-4.5 143.7M77.9 236.1C50 209.2 23 181.2-4.5 153.7M77.9 7.1C50-19.8 23-47.8-4.5-75.2M77.9 17.1C50-9.8 23-37.8-4.5-65.2M77.9 27.1C50 .2 23-27.8-4.5-55.2M77.9 37.1C50 10.2 23-17.8-4.5-45.2M77.9 47.1C50 20.2 23-7.8-4.5-35.2M77.9 57.1C50 30.2 23 2.2-4.5-25.2M77.9 67.1C50 40.2 23 12.2-4.5-15.2M77.9 77.1C50 50.2 23 22.2-4.5-5.2M77.9 87.1C50 60.2 23 32.2-4.5 4.7M77.9 97.1C50 70.2 23 42.2-4.5 14.7M77.9 107.1C50 80.2 23 52.2-4.5 24.7M77.9 117.1C50 90.2 23 62.2-4.5 34.7M77.9 245.1C50 218.2 23 190.2-4.5 162.7M77.9 255.1C50 228.2 23 200.2-4.5 172.7M77.9 265.1C50 238.2 23 210.2-4.5 182.7M77.9 126.1C50 99.2 23 71.2-4.5 43.7M77.9 136.1C50 109.2 23 81.2-4.5 53.7M77.9 146.1C50 119.2 23 91.2-4.5 63.7M77.9 156.1C50 129.2 23 101.2-4.5 73.7M77.9 166.1C50 139.2 23 111.2-4.5 83.7M77.9 176.1C50 149.2 23 121.2-4.5 93.7M77.9 186.1C50 159.2 23 131.2-4.5 103.7M77.9 196.1C50 169.2 23 141.2-4.5 113.7M77.9 206.1C50 179.2 23 151.2-4.5 123.7M77.9 216.1C50 189.2 23 161.2-4.5 133.7M77.9 226.1C50 199.2 23 171.2-4.5 143.7M77.9 236.1C50 209.2 23 181.2-4.5 153.7"/><g><path d="M77.9 245.1C50 218.2 23 190.2-4.5 162.7M77.9 255.1C50 228.2 23 200.2-4.5 172.7M77.9 265.1C50 238.2 23 210.2-4.5 182.7"/></g><g><path d="M77.9 126.1C50 99.2 23 71.2-4.5 43.7M77.9 136.1C50 109.2 23 81.2-4.5 53.7M77.9 146.1C50 119.2 23 91.2-4.5 63.7M77.9 156.1C50 129.2 23 101.2-4.5 73.7M77.9 166.1C50 139.2 23 111.2-4.5 83.7M77.9 176.1C50 149.2 23 121.2-4.5 93.7M77.9 186.1C50 159.2 23 131.2-4.5 103.7M77.9 196.1C50 169.2 23 141.2-4.5 113.7M77.9 206.1C50 179.2 23 151.2-4.5 123.7M77.9 216.1C50 189.2 23 161.2-4.5 133.7M77.9 226.1C50 199.2 23 171.2-4.5 143.7M77.9 236.1C50 209.2 23 181.2-4.5 153.7"/><g><path d="M196.9 126.1L77.1 6.4M196.9 136.1L77.1 16.4M196.9 146.1L77.1 26.4M196.9 156.1L77.1 36.4M196.9 166.1L77.1 46.4M196.9 176.1L77.1 56.4M196.9 186.1L77.1 66.4M196.9 196.1L77.1 76.4M196.9 206.1L77.1 86.4M196.9 216.1L77.1 96.4M196.9 226.1L77.1 106.4M196.9 236.1L77.1 116.4"/></g><g><path d="M77.9 7.1C50-19.8 23-47.8-4.5-75.2M77.9 17.1C50-9.8 23-37.8-4.5-65.2M77.9 27.1C50 .2 23-27.8-4.5-55.2M77.9 37.1C50 10.2 23-17.8-4.5-45.2M77.9 47.1C50 20.2 23-7.8-4.5-35.2M77.9 57.1C50 30.2 23 2.2-4.5-25.2M77.9 67.1C50 40.2 23 12.2-4.5-15.2M77.9 77.1C50 50.2 23 22.2-4.5-5.2M77.9 87.1C50 60.2 23 32.2-4.5 4.7M77.9 97.1C50 70.2 23 42.2-4.5 14.7M77.9 107.1C50 80.2 23 52.2-4.5 24.7M77.9 117.1C50 90.2 23 62.2-4.5 34.7"/></g><g><path d="M196.9 7.1L77.1-112.6M196.9 17.1L77.1-102.6M196.9 27.1L77.1-92.6M196.9 37.1L77.1-82.6M196.9 47.1L77.1-72.6M196.9 57.1L77.1-62.6M196.9 67.1L77.1-52.6M196.9 77.1L77.1-42.6M196.9 87.1L77.1-32.6M196.9 97.1L77.1-22.6M196.9 107.1L77.1-12.6M196.9 117.1L77.1-2.6"/></g></g><g><path d="M77.9 245.1C50 218.2 23 190.2-4.5 162.7M77.9 255.1C50 228.2 23 200.2-4.5 172.7M77.9 265.1C50 238.2 23 210.2-4.5 182.7M196.9 245.1L77.1 125.4M196.9 255.1L77.1 135.4M196.9 265.1L77.1 145.4M196.9 275.1L77.1 155.4M196.9 285.1L77.1 165.4M196.9 295.1L77.1 175.4M191.4 299.6L77.2 185.4"/><g><path d="M77.9 126.1C50 99.2 23 71.2-4.5 43.7M77.9 136.1C50 109.2 23 81.2-4.5 53.7M77.9 146.1C50 119.2 23 91.2-4.5 63.7M77.9 156.1C50 129.2 23 101.2-4.5 73.7M77.9 166.1C50 139.2 23 111.2-4.5 83.7M77.9 176.1C50 149.2 23 121.2-4.5 93.7M77.9 186.1C50 159.2 23 131.2-4.5 103.7M77.9 196.1C50 169.2 23 141.2-4.5 113.7M77.9 206.1C50 179.2 23 151.2-4.5 123.7M77.9 216.1C50 189.2 23 161.2-4.5 133.7M77.9 226.1C50 199.2 23 171.2-4.5 143.7M77.9 236.1C50 209.2 23 181.2-4.5 153.7"/></g><g><path d="M196.9 126.1L77.1 6.4M196.9 136.1L77.1 16.4M196.9 146.1L77.1 26.4M196.9 156.1L77.1 36.4M196.9 166.1L77.1 46.4M196.9 176.1L77.1 56.4M196.9 186.1L77.1 66.4M196.9 196.1L77.1 76.4M196.9 206.1L77.1 86.4M196.9 216.1L77.1 96.4M196.9 226.1L77.1 106.4M196.9 236.1L77.1 116.4"/></g></g><g><path d="M77.9 245.1C50 218.2 23 190.2-4.5 162.7M77.9 255.1C50 228.2 23 200.2-4.5 172.7M77.9 265.1C50 238.2 23 210.2-4.5 182.7"/><g><path d="M196.9 245.1L77.1 125.4M196.9 255.1L77.1 135.4M196.9 265.1L77.1 145.4M196.9 275.1L77.1 155.4M196.9 285.1L77.1 165.4M196.9 295.1L77.1 175.4M191.4 299.6L77.2 185.4"/></g></g><g><path d="M77.9 126.1C50 99.2 23 71.2-4.5 43.7M77.9 136.1C50 109.2 23 81.2-4.5 53.7M77.9 146.1C50 119.2 23 91.2-4.5 63.7M77.9 156.1C50 129.2 23 101.2-4.5 73.7M77.9 166.1C50 139.2 23 111.2-4.5 83.7M77.9 176.1C50 149.2 23 121.2-4.5 93.7M77.9 186.1C50 159.2 23 131.2-4.5 103.7M77.9 196.1C50 169.2 23 141.2-4.5 113.7M77.9 206.1C50 179.2 23 151.2-4.5 123.7M77.9 216.1C50 189.2 23 161.2-4.5 133.7M77.9 226.1C50 199.2 23 171.2-4.5 143.7M77.9 236.1C50 209.2 23 181.2-4.5 153.7"/><g><path d="M196.9 126.1L77.1 6.4M196.9 136.1L77.1 16.4M196.9 146.1L77.1 26.4M196.9 156.1L77.1 36.4M196.9 166.1L77.1 46.4M196.9 176.1L77.1 56.4M196.9 186.1L77.1 66.4M196.9 196.1L77.1 76.4M196.9 206.1L77.1 86.4M196.9 216.1L77.1 96.4M196.9 226.1L77.1 106.4M196.9 236.1L77.1 116.4"/></g><g><path d="M315.9 126.1L196.1 6.4M315.9 136.1L196.1 16.4M315.9 146.1L196.1 26.4M315.9 156.1L196.1 36.4M315.9 166.1L196.1 46.4M315.9 176.1L196.1 56.4M315.9 186.1L196.1 66.4M315.9 196.1L196.1 76.4M315.9 206.1L196.1 86.4M315.9 216.1L196.1 96.4M315.9 226.1L196.1 106.4M315.9 236.1L196.1 116.4"/></g><g><path d="M77.9 7.1C50-19.8 23-47.8-4.5-75.2M77.9 17.1C50-9.8 23-37.8-4.5-65.2M77.9 27.1C50 .2 23-27.8-4.5-55.2M77.9 37.1C50 10.2 23-17.8-4.5-45.2M77.9 47.1C50 20.2 23-7.8-4.5-35.2M77.9 57.1C50 30.2 23 2.2-4.5-25.2M77.9 67.1C50 40.2 23 12.2-4.5-15.2M77.9 77.1C50 50.2 23 22.2-4.5-5.2M77.9 87.1C50 60.2 23 32.2-4.5 4.7M77.9 97.1C50 70.2 23 42.2-4.5 14.7M77.9 107.1C50 80.2 23 52.2-4.5 24.7M77.9 117.1C50 90.2 23 62.2-4.5 34.7"/></g><g><path d="M196.9 7.1L77.1-112.6M196.9 17.1L77.1-102.6M196.9 27.1L77.1-92.6M196.9 37.1L77.1-82.6M196.9 47.1L77.1-72.6M196.9 57.1L77.1-62.6M196.9 67.1L77.1-52.6M196.9 77.1L77.1-42.6M196.9 87.1L77.1-32.6M196.9 97.1L77.1-22.6M196.9 107.1L77.1-12.6M196.9 117.1L77.1-2.6"/></g><g><path d="M315.9 7.1L196.1-112.6M315.9 17.1L196.1-102.6M315.9 27.1L196.1-92.6M315.9 37.1L196.1-82.6M315.9 47.1L196.1-72.6M315.9 57.1L196.1-62.6M315.9 67.1L196.1-52.6M315.9 77.1L196.1-42.6M315.9 87.1L196.1-32.6M315.9 97.1L196.1-22.6M315.9 107.1L196.1-12.6M315.9 117.1L196.1-2.6"/></g></g><g><path d="M77.9 245.1C50 218.2 23 190.2-4.5 162.7M77.9 255.1C50 228.2 23 200.2-4.5 172.7M77.9 265.1C50 238.2 23 210.2-4.5 182.7M196.9 245.1L77.1 125.4M196.9 255.1L77.1 135.4M196.9 265.1L77.1 145.4M196.9 275.1L77.1 155.4M196.9 285.1L77.1 165.4M196.9 295.1L77.1 175.4M191.4 299.6L77.2 185.4"/><g><path d="M315.9 245.1L196.1 125.4M315.9 255.1L196.1 135.4M315.9 265.1L196.1 145.4M315.9 275.1L196.1 155.4M315.9 285.1L196.1 165.4M315.9 295.1L196.1 175.4M310.4 299.6L196.2 185.4"/></g><g><path d="M77.9 126.1C50 99.2 23 71.2-4.5 43.7M77.9 136.1C50 109.2 23 81.2-4.5 53.7M77.9 146.1C50 119.2 23 91.2-4.5 63.7M77.9 156.1C50 129.2 23 101.2-4.5 73.7M77.9 166.1C50 139.2 23 111.2-4.5 83.7M77.9 176.1C50 149.2 23 121.2-4.5 93.7M77.9 186.1C50 159.2 23 131.2-4.5 103.7M77.9 196.1C50 169.2 23 141.2-4.5 113.7M77.9 206.1C50 179.2 23 151.2-4.5 123.7M77.9 216.1C50 189.2 23 161.2-4.5 133.7M77.9 226.1C50 199.2 23 171.2-4.5 143.7M77.9 236.1C50 209.2 23 181.2-4.5 153.7"/></g><g><path d="M196.9 126.1L77.1 6.4M196.9 136.1L77.1 16.4M196.9 146.1L77.1 26.4M196.9 156.1L77.1 36.4M196.9 166.1L77.1 46.4M196.9 176.1L77.1 56.4M196.9 186.1L77.1 66.4M196.9 196.1L77.1 76.4M196.9 206.1L77.1 86.4M196.9 216.1L77.1 96.4M196.9 226.1L77.1 106.4M196.9 236.1L77.1 116.4"/></g><g><path d="M315.9 126.1L196.1 6.4M315.9 136.1L196.1 16.4M315.9 146.1L196.1 26.4M315.9 156.1L196.1 36.4M315.9 166.1L196.1 46.4M315.9 176.1L196.1 56.4M315.9 186.1L196.1 66.4M315.9 196.1L196.1 76.4M315.9 206.1L196.1 86.4M315.9 216.1L196.1 96.4M315.9 226.1L196.1 106.4M315.9 236.1L196.1 116.4"/></g></g><g><path d="M77.9 245.1C50 218.2 23 190.2-4.5 162.7M77.9 255.1C50 228.2 23 200.2-4.5 172.7M77.9 265.1C50 238.2 23 210.2-4.5 182.7"/><g><path d="M196.9 245.1L77.1 125.4M196.9 255.1L77.1 135.4M196.9 265.1L77.1 145.4M196.9 275.1L77.1 155.4M196.9 285.1L77.1 165.4M196.9 295.1L77.1 175.4M191.4 299.6L77.2 185.4"/></g><g><path d="M315.9 245.1L196.1 125.4M315.9 255.1L196.1 135.4M315.9 265.1L196.1 145.4M315.9 275.1L196.1 155.4M315.9 285.1L196.1 165.4M315.9 295.1L196.1 175.4M310.4 299.6L196.2 185.4"/></g></g><g><path d="M196.9 126.1L77.1 6.4M196.9 136.1L77.1 16.4M196.9 146.1L77.1 26.4M196.9 156.1L77.1 36.4M196.9 166.1L77.1 46.4M196.9 176.1L77.1 56.4M196.9 186.1L77.1 66.4M196.9 196.1L77.1 76.4M196.9 206.1L77.1 86.4M196.9 216.1L77.1 96.4M196.9 226.1L77.1 106.4M196.9 236.1L77.1 116.4"/><g><path d="M315.9 126.1L196.1 6.4M315.9 136.1L196.1 16.4M315.9 146.1L196.1 26.4M315.9 156.1L196.1 36.4M315.9 166.1L196.1 46.4M315.9 176.1L196.1 56.4M315.9 186.1L196.1 66.4M315.9 196.1L196.1 76.4M315.9 206.1L196.1 86.4M315.9 216.1L196.1 96.4M315.9 226.1L196.1 106.4M315.9 236.1L196.1 116.4"/></g><g><path d="M434.9 126.1L315.1 6.4M434.9 136.1L315.1 16.4M434.9 146.1L315.1 26.4M434.9 156.1L315.1 36.4M434.9 166.1L315.1 46.4M434.9 176.1L315.1 56.4M434.9 186.1L315.1 66.4M434.9 196.1L315.1 76.4M434.9 206.1L315.1 86.4M434.9 216.1L315.1 96.4M434.9 226.1L315.1 106.4M434.9 236.1L315.1 116.4"/></g><g><path d="M196.9 7.1L77.1-112.6M196.9 17.1L77.1-102.6M196.9 27.1L77.1-92.6M196.9 37.1L77.1-82.6M196.9 47.1L77.1-72.6M196.9 57.1L77.1-62.6M196.9 67.1L77.1-52.6M196.9 77.1L77.1-42.6M196.9 87.1L77.1-32.6M196.9 97.1L77.1-22.6M196.9 107.1L77.1-12.6M196.9 117.1L77.1-2.6"/></g><g><path d="M315.9 7.1L196.1-112.6M315.9 17.1L196.1-102.6M315.9 27.1L196.1-92.6M315.9 37.1L196.1-82.6M315.9 47.1L196.1-72.6M315.9 57.1L196.1-62.6M315.9 67.1L196.1-52.6M315.9 77.1L196.1-42.6M315.9 87.1L196.1-32.6M315.9 97.1L196.1-22.6M315.9 107.1L196.1-12.6M315.9 117.1L196.1-2.6"/></g><g><path d="M434.9 7.1L315.1-112.6M434.9 17.1L315.1-102.6M434.9 27.1L315.1-92.6M434.9 37.1L315.1-82.6M434.9 47.1L315.1-72.6M434.9 57.1L315.1-62.6M434.9 67.1L315.1-52.6M434.9 77.1L315.1-42.6M434.9 87.1L315.1-32.6M434.9 97.1L315.1-22.6M434.9 107.1L315.1-12.6M434.9 117.1L315.1-2.6"/></g></g><g><path d="M196.9 245.1L77.1 125.4M196.9 255.1L77.1 135.4M196.9 265.1L77.1 145.4M196.9 275.1L77.1 155.4M196.9 285.1L77.1 165.4M196.9 295.1L77.1 175.4M191.4 299.6L77.2 185.4"/><g><path d="M315.9 245.1L196.1 125.4M315.9 255.1L196.1 135.4M315.9 265.1L196.1 145.4M315.9 275.1L196.1 155.4M315.9 285.1L196.1 165.4M315.9 295.1L196.1 175.4M310.4 299.6L196.2 185.4"/></g><g><path d="M434.9 245.1L315.1 125.4M434.9 255.1L315.1 135.4M434.9 265.1L315.1 145.4M434.9 275.1L315.1 155.4M434.9 285.1L315.1 165.4M434.9 295.1L315.1 175.4M429.4 299.6L315.2 185.4"/></g><g><path d="M196.9 126.1L77.1 6.4M196.9 136.1L77.1 16.4M196.9 146.1L77.1 26.4M196.9 156.1L77.1 36.4M196.9 166.1L77.1 46.4M196.9 176.1L77.1 56.4M196.9 186.1L77.1 66.4M196.9 196.1L77.1 76.4M196.9 206.1L77.1 86.4M196.9 216.1L77.1 96.4M196.9 226.1L77.1 106.4M196.9 236.1L77.1 116.4"/></g><g><path d="M315.9 126.1L196.1 6.4M315.9 136.1L196.1 16.4M315.9 146.1L196.1 26.4M315.9 156.1L196.1 36.4M315.9 166.1L196.1 46.4M315.9 176.1L196.1 56.4M315.9 186.1L196.1 66.4M315.9 196.1L196.1 76.4M315.9 206.1L196.1 86.4M315.9 216.1L196.1 96.4M315.9 226.1L196.1 106.4M315.9 236.1L196.1 116.4"/></g><g><path d="M434.9 126.1L315.1 6.4M434.9 136.1L315.1 16.4M434.9 146.1L315.1 26.4M434.9 156.1L315.1 36.4M434.9 166.1L315.1 46.4M434.9 176.1L315.1 56.4M434.9 186.1L315.1 66.4M434.9 196.1L315.1 76.4M434.9 206.1L315.1 86.4M434.9 216.1L315.1 96.4M434.9 226.1L315.1 106.4M434.9 236.1L315.1 116.4"/></g></g><g><path d="M196.9 245.1L77.1 125.4M196.9 255.1L77.1 135.4M196.9 265.1L77.1 145.4M196.9 275.1L77.1 155.4M196.9 285.1L77.1 165.4M196.9 295.1L77.1 175.4M191.4 299.6L77.2 185.4"/><g><path d="M315.9 245.1L196.1 125.4M315.9 255.1L196.1 135.4M315.9 265.1L196.1 145.4M315.9 275.1L196.1 155.4M315.9 285.1L196.1 165.4M315.9 295.1L196.1 175.4M310.4 299.6L196.2 185.4"/></g><g><path d="M434.9 245.1L315.1 125.4M434.9 255.1L315.1 135.4M434.9 265.1L315.1 145.4M434.9 275.1L315.1 155.4M434.9 285.1L315.1 165.4M434.9 295.1L315.1 175.4M429.4 299.6L315.2 185.4"/></g></g><g><path d="M315.9 126.1L196.1 6.4M315.9 136.1L196.1 16.4M315.9 146.1L196.1 26.4M315.9 156.1L196.1 36.4M315.9 166.1L196.1 46.4M315.9 176.1L196.1 56.4M315.9 186.1L196.1 66.4M315.9 196.1L196.1 76.4M315.9 206.1L196.1 86.4M315.9 216.1L196.1 96.4M315.9 226.1L196.1 106.4M315.9 236.1L196.1 116.4"/><g><path d="M434.9 126.1L315.1 6.4M434.9 136.1L315.1 16.4M434.9 146.1L315.1 26.4M434.9 156.1L315.1 36.4M434.9 166.1L315.1 46.4M434.9 176.1L315.1 56.4M434.9 186.1L315.1 66.4M434.9 196.1L315.1 76.4M434.9 206.1L315.1 86.4M434.9 216.1L315.1 96.4M434.9 226.1L315.1 106.4M434.9 236.1L315.1 116.4"/></g><g><path d="M553.9 126.1L434.1 6.4M553.9 136.1L434.1 16.4M553.9 146.1L434.1 26.4M553.9 156.1L434.1 36.4M553.9 166.1L434.1 46.4M553.9 176.1L434.1 56.4M553.9 186.1L434.1 66.4M553.9 196.1L434.1 76.4M553.9 206.1L434.1 86.4M553.9 216.1L434.1 96.4M553.9 226.1L434.1 106.4M553.9 236.1L434.1 116.4"/></g><g><path d="M315.9 7.1L196.1-112.6M315.9 17.1L196.1-102.6M315.9 27.1L196.1-92.6M315.9 37.1L196.1-82.6M315.9 47.1L196.1-72.6M315.9 57.1L196.1-62.6M315.9 67.1L196.1-52.6M315.9 77.1L196.1-42.6M315.9 87.1L196.1-32.6M315.9 97.1L196.1-22.6M315.9 107.1L196.1-12.6M315.9 117.1L196.1-2.6"/></g><g><path d="M434.9 7.1L315.1-112.6M434.9 17.1L315.1-102.6M434.9 27.1L315.1-92.6M434.9 37.1L315.1-82.6M434.9 47.1L315.1-72.6M434.9 57.1L315.1-62.6M434.9 67.1L315.1-52.6M434.9 77.1L315.1-42.6M434.9 87.1L315.1-32.6M434.9 97.1L315.1-22.6M434.9 107.1L315.1-12.6M434.9 117.1L315.1-2.6"/></g><g><path d="M553.9 7.1L434.1-112.6M553.9 17.1L434.1-102.6M553.9 27.1L434.1-92.6M553.9 37.1L434.1-82.6M553.9 47.1L434.1-72.6M553.9 57.1L434.1-62.6M553.9 67.1L434.1-52.6M553.9 77.1L434.1-42.6M553.9 87.1L434.1-32.6M553.9 97.1L434.1-22.6M553.9 107.1L434.1-12.6M553.9 117.1L434.1-2.6"/></g></g><g><path d="M315.9 245.1L196.1 125.4M315.9 255.1L196.1 135.4M315.9 265.1L196.1 145.4M315.9 275.1L196.1 155.4M315.9 285.1L196.1 165.4M315.9 295.1L196.1 175.4M310.4 299.6L196.2 185.4"/><g><path d="M434.9 245.1L315.1 125.4M434.9 255.1L315.1 135.4M434.9 265.1L315.1 145.4M434.9 275.1L315.1 155.4M434.9 285.1L315.1 165.4M434.9 295.1L315.1 175.4M429.4 299.6L315.2 185.4"/></g><g><path d="M553.9 245.1L434.1 125.4M553.9 255.1L434.1 135.4M553.9 265.1L434.1 145.4M553.9 275.1L434.1 155.4M553.9 285.1L434.1 165.4M553.9 295.1L434.1 175.4M548.4 299.6L434.2 185.4"/></g><g><path d="M315.9 126.1L196.1 6.4M315.9 136.1L196.1 16.4M315.9 146.1L196.1 26.4M315.9 156.1L196.1 36.4M315.9 166.1L196.1 46.4M315.9 176.1L196.1 56.4M315.9 186.1L196.1 66.4M315.9 196.1L196.1 76.4M315.9 206.1L196.1 86.4M315.9 216.1L196.1 96.4M315.9 226.1L196.1 106.4M315.9 236.1L196.1 116.4"/></g><g><path d="M434.9 126.1L315.1 6.4M434.9 136.1L315.1 16.4M434.9 146.1L315.1 26.4M434.9 156.1L315.1 36.4M434.9 166.1L315.1 46.4M434.9 176.1L315.1 56.4M434.9 186.1L315.1 66.4M434.9 196.1L315.1 76.4M434.9 206.1L315.1 86.4M434.9 216.1L315.1 96.4M434.9 226.1L315.1 106.4M434.9 236.1L315.1 116.4"/></g><g><path d="M553.9 126.1L434.1 6.4M553.9 136.1L434.1 16.4M553.9 146.1L434.1 26.4M553.9 156.1L434.1 36.4M553.9 166.1L434.1 46.4M553.9 176.1L434.1 56.4M553.9 186.1L434.1 66.4M553.9 196.1L434.1 76.4M553.9 206.1L434.1 86.4M553.9 216.1L434.1 96.4M553.9 226.1L434.1 106.4M553.9 236.1L434.1 116.4"/></g></g><g><path d="M315.9 245.1L196.1 125.4M315.9 255.1L196.1 135.4M315.9 265.1L196.1 145.4M315.9 275.1L196.1 155.4M315.9 285.1L196.1 165.4M315.9 295.1L196.1 175.4M310.4 299.6L196.2 185.4"/><g><path d="M434.9 245.1L315.1 125.4M434.9 255.1L315.1 135.4M434.9 265.1L315.1 145.4M434.9 275.1L315.1 155.4M434.9 285.1L315.1 165.4M434.9 295.1L315.1 175.4M429.4 299.6L315.2 185.4"/></g><g><path d="M553.9 245.1L434.1 125.4M553.9 255.1L434.1 135.4M553.9 265.1L434.1 145.4M553.9 275.1L434.1 155.4M553.9 285.1L434.1 165.4M553.9 295.1L434.1 175.4M548.4 299.6L434.2 185.4"/></g></g><g><path d="M434.9 126.1L315.1 6.4M434.9 136.1L315.1 16.4M434.9 146.1L315.1 26.4M434.9 156.1L315.1 36.4M434.9 166.1L315.1 46.4M434.9 176.1L315.1 56.4M434.9 186.1L315.1 66.4M434.9 196.1L315.1 76.4M434.9 206.1L315.1 86.4M434.9 216.1L315.1 96.4M434.9 226.1L315.1 106.4M434.9 236.1L315.1 116.4"/><g><path d="M553.9 126.1L434.1 6.4M553.9 136.1L434.1 16.4M553.9 146.1L434.1 26.4M553.9 156.1L434.1 36.4M553.9 166.1L434.1 46.4M553.9 176.1L434.1 56.4M553.9 186.1L434.1 66.4M553.9 196.1L434.1 76.4M553.9 206.1L434.1 86.4M553.9 216.1L434.1 96.4M553.9 226.1L434.1 106.4M553.9 236.1L434.1 116.4"/></g><g><path d="M672.9 126.1L553.1 6.4M672.9 136.1L553.1 16.4M672.9 146.1L553.1 26.4M672.9 156.1L553.1 36.4M672.9 166.1L553.1 46.4M672.9 176.1L553.1 56.4M672.9 186.1L553.1 66.4M672.9 196.1L553.1 76.4M672.9 206.1L553.1 86.4M672.9 216.1L553.1 96.4M672.9 226.1L553.1 106.4M672.9 236.1L553.1 116.4"/></g><g><path d="M434.9 7.1L315.1-112.6M434.9 17.1L315.1-102.6M434.9 27.1L315.1-92.6M434.9 37.1L315.1-82.6M434.9 47.1L315.1-72.6M434.9 57.1L315.1-62.6M434.9 67.1L315.1-52.6M434.9 77.1L315.1-42.6M434.9 87.1L315.1-32.6M434.9 97.1L315.1-22.6M434.9 107.1L315.1-12.6M434.9 117.1L315.1-2.6"/></g><g><path d="M553.9 7.1L434.1-112.6M553.9 17.1L434.1-102.6M553.9 27.1L434.1-92.6M553.9 37.1L434.1-82.6M553.9 47.1L434.1-72.6M553.9 57.1L434.1-62.6M553.9 67.1L434.1-52.6M553.9 77.1L434.1-42.6M553.9 87.1L434.1-32.6M553.9 97.1L434.1-22.6M553.9 107.1L434.1-12.6M553.9 117.1L434.1-2.6"/></g><g><path d="M672.9 7.1L553.1-112.6M672.9 17.1L553.1-102.6M672.9 27.1L553.1-92.6M672.9 37.1L553.1-82.6M672.9 47.1L553.1-72.6M672.9 57.1L553.1-62.6M672.9 67.1L553.1-52.6M672.9 77.1L553.1-42.6M672.9 87.1L553.1-32.6M672.9 97.1L553.1-22.6M672.9 107.1L553.1-12.6M672.9 117.1L553.1-2.6"/></g></g><g><path d="M434.9 245.1L315.1 125.4M434.9 255.1L315.1 135.4M434.9 265.1L315.1 145.4M434.9 275.1L315.1 155.4M434.9 285.1L315.1 165.4M434.9 295.1L315.1 175.4M429.4 299.6L315.2 185.4"/><g><path d="M553.9 245.1L434.1 125.4M553.9 255.1L434.1 135.4M553.9 265.1L434.1 145.4M553.9 275.1L434.1 155.4M553.9 285.1L434.1 165.4M553.9 295.1L434.1 175.4M548.4 299.6L434.2 185.4"/></g><g><path d="M672.9 245.1L553.1 125.4M672.9 255.1L553.1 135.4M672.9 265.1L553.1 145.4M672.9 275.1L553.1 155.4M672.9 285.1L553.1 165.4M672.9 295.1L553.1 175.4M668 300.3c-38-38.1-77-77.1-114.9-114.9"/></g><g><path d="M434.9 126.1L315.1 6.4M434.9 136.1L315.1 16.4M434.9 146.1L315.1 26.4M434.9 156.1L315.1 36.4M434.9 166.1L315.1 46.4M434.9 176.1L315.1 56.4M434.9 186.1L315.1 66.4M434.9 196.1L315.1 76.4M434.9 206.1L315.1 86.4M434.9 216.1L315.1 96.4M434.9 226.1L315.1 106.4M434.9 236.1L315.1 116.4"/></g><g><path d="M553.9 126.1L434.1 6.4M553.9 136.1L434.1 16.4M553.9 146.1L434.1 26.4M553.9 156.1L434.1 36.4M553.9 166.1L434.1 46.4M553.9 176.1L434.1 56.4M553.9 186.1L434.1 66.4M553.9 196.1L434.1 76.4M553.9 206.1L434.1 86.4M553.9 216.1L434.1 96.4M553.9 226.1L434.1 106.4M553.9 236.1L434.1 116.4"/></g><g><path d="M672.9 126.1L553.1 6.4M672.9 136.1L553.1 16.4M672.9 146.1L553.1 26.4M672.9 156.1L553.1 36.4M672.9 166.1L553.1 46.4M672.9 176.1L553.1 56.4M672.9 186.1L553.1 66.4M672.9 196.1L553.1 76.4M672.9 206.1L553.1 86.4M672.9 216.1L553.1 96.4M672.9 226.1L553.1 106.4M672.9 236.1L553.1 116.4"/></g></g><g><path d="M434.9 245.1L315.1 125.4M434.9 255.1L315.1 135.4M434.9 265.1L315.1 145.4M434.9 275.1L315.1 155.4M434.9 285.1L315.1 165.4M434.9 295.1L315.1 175.4M429.4 299.6L315.2 185.4"/><g><path d="M553.9 245.1L434.1 125.4M553.9 255.1L434.1 135.4M553.9 265.1L434.1 145.4M553.9 275.1L434.1 155.4M553.9 285.1L434.1 165.4M553.9 295.1L434.1 175.4M548.4 299.6L434.2 185.4"/></g><g><path d="M672.9 245.1L553.1 125.4M672.9 255.1L553.1 135.4M672.9 265.1L553.1 145.4M672.9 275.1L553.1 155.4M672.9 285.1L553.1 165.4M672.9 295.1L553.1 175.4M668 300.3c-38-38.1-77-77.1-114.9-114.9"/></g></g><g><path d="M553.9 126.1L434.1 6.4M553.9 136.1L434.1 16.4M553.9 146.1L434.1 26.4M553.9 156.1L434.1 36.4M553.9 166.1L434.1 46.4M553.9 176.1L434.1 56.4M553.9 186.1L434.1 66.4M553.9 196.1L434.1 76.4M553.9 206.1L434.1 86.4M553.9 216.1L434.1 96.4M553.9 226.1L434.1 106.4M553.9 236.1L434.1 116.4"/><g><path d="M672.9 126.1L553.1 6.4M672.9 136.1L553.1 16.4M672.9 146.1L553.1 26.4M672.9 156.1L553.1 36.4M672.9 166.1L553.1 46.4M672.9 176.1L553.1 56.4M672.9 186.1L553.1 66.4M672.9 196.1L553.1 76.4M672.9 206.1L553.1 86.4M672.9 216.1L553.1 96.4M672.9 226.1L553.1 106.4M672.9 236.1L553.1 116.4"/></g><g><path d="M791.9 126.1L672.1 6.4M791.9 136.1L672.1 16.4M791.9 146.1L672.1 26.4M791.9 156.1L672.1 36.4M791.9 166.1L672.1 46.4M791.9 176.1L672.1 56.4M791.9 186.1L672.1 66.4M791.9 196.1L672.1 76.4M791.9 206.1L672.1 86.4M791.9 216.1L672.1 96.4M791.9 226.1L672.1 106.4M791.9 236.1L672.1 116.4"/></g><g><path d="M553.9 7.1L434.1-112.6M553.9 17.1L434.1-102.6M553.9 27.1L434.1-92.6M553.9 37.1L434.1-82.6M553.9 47.1L434.1-72.6M553.9 57.1L434.1-62.6M553.9 67.1L434.1-52.6M553.9 77.1L434.1-42.6M553.9 87.1L434.1-32.6M553.9 97.1L434.1-22.6M553.9 107.1L434.1-12.6M553.9 117.1L434.1-2.6"/></g><g><path d="M672.9 7.1L553.1-112.6M672.9 17.1L553.1-102.6M672.9 27.1L553.1-92.6M672.9 37.1L553.1-82.6M672.9 47.1L553.1-72.6M672.9 57.1L553.1-62.6M672.9 67.1L553.1-52.6M672.9 77.1L553.1-42.6M672.9 87.1L553.1-32.6M672.9 97.1L553.1-22.6M672.9 107.1L553.1-12.6M672.9 117.1L553.1-2.6"/></g><g><path d="M791.9 7.1L672.1-112.6M791.9 17.1L672.1-102.6M791.9 27.1L672.1-92.6M791.9 37.1L672.1-82.6M791.9 47.1L672.1-72.6M791.9 57.1L672.1-62.6M791.9 67.1L672.1-52.6M791.9 77.1L672.1-42.6M791.9 87.1L672.1-32.6M791.9 97.1L672.1-22.6M791.9 107.1L672.1-12.6M791.9 117.1L672.1-2.6"/></g></g><g><path d="M553.9 245.1L434.1 125.4M553.9 255.1L434.1 135.4M553.9 265.1L434.1 145.4M553.9 275.1L434.1 155.4M553.9 285.1L434.1 165.4M553.9 295.1L434.1 175.4M548.4 299.6L434.2 185.4"/><g><path d="M672.9 245.1L553.1 125.4M672.9 255.1L553.1 135.4M672.9 265.1L553.1 145.4M672.9 275.1L553.1 155.4M672.9 285.1L553.1 165.4M672.9 295.1L553.1 175.4M668 300.3c-38-38.1-77-77.1-114.9-114.9"/></g><g><path d="M791.9 245.1L672.1 125.4M791.9 255.1L672.1 135.4M791.9 265.1L672.1 145.4M791.9 275.1L672.1 155.4M791.9 285.1L672.1 165.4M791.9 295.1L672.1 175.4M787.7 301C749 262.2 711 224.2 672.1 185.4"/></g><g><path d="M553.9 126.1L434.1 6.4M553.9 136.1L434.1 16.4M553.9 146.1L434.1 26.4M553.9 156.1L434.1 36.4M553.9 166.1L434.1 46.4M553.9 176.1L434.1 56.4M553.9 186.1L434.1 66.4M553.9 196.1L434.1 76.4M553.9 206.1L434.1 86.4M553.9 216.1L434.1 96.4M553.9 226.1L434.1 106.4M553.9 236.1L434.1 116.4"/></g><g><path d="M672.9 126.1L553.1 6.4M672.9 136.1L553.1 16.4M672.9 146.1L553.1 26.4M672.9 156.1L553.1 36.4M672.9 166.1L553.1 46.4M672.9 176.1L553.1 56.4M672.9 186.1L553.1 66.4M672.9 196.1L553.1 76.4M672.9 206.1L553.1 86.4M672.9 216.1L553.1 96.4M672.9 226.1L553.1 106.4M672.9 236.1L553.1 116.4"/></g><g><path d="M791.9 126.1L672.1 6.4M791.9 136.1L672.1 16.4M791.9 146.1L672.1 26.4M791.9 156.1L672.1 36.4M791.9 166.1L672.1 46.4M791.9 176.1L672.1 56.4M791.9 186.1L672.1 66.4M791.9 196.1L672.1 76.4M791.9 206.1L672.1 86.4M791.9 216.1L672.1 96.4M791.9 226.1L672.1 106.4M791.9 236.1L672.1 116.4"/></g></g><g><path d="M553.9 245.1L434.1 125.4M553.9 255.1L434.1 135.4M553.9 265.1L434.1 145.4M553.9 275.1L434.1 155.4M553.9 285.1L434.1 165.4M553.9 295.1L434.1 175.4M548.4 299.6L434.2 185.4"/><g><path d="M672.9 245.1L553.1 125.4M672.9 255.1L553.1 135.4M672.9 265.1L553.1 145.4M672.9 275.1L553.1 155.4M672.9 285.1L553.1 165.4M672.9 295.1L553.1 175.4M668 300.3c-38-38.1-77-77.1-114.9-114.9"/></g><g><path d="M791.9 245.1L672.1 125.4M791.9 255.1L672.1 135.4M791.9 265.1L672.1 145.4M791.9 275.1L672.1 155.4M791.9 285.1L672.1 165.4M791.9 295.1L672.1 175.4M787.7 301C749 262.2 711 224.2 672.1 185.4"/></g></g><g><path d="M672.9 126.1L553.1 6.4M672.9 136.1L553.1 16.4M672.9 146.1L553.1 26.4M672.9 156.1L553.1 36.4M672.9 166.1L553.1 46.4M672.9 176.1L553.1 56.4M672.9 186.1L553.1 66.4M672.9 196.1L553.1 76.4M672.9 206.1L553.1 86.4M672.9 216.1L553.1 96.4M672.9 226.1L553.1 106.4M672.9 236.1L553.1 116.4"/><g><path d="M791.9 126.1L672.1 6.4M791.9 136.1L672.1 16.4M791.9 146.1L672.1 26.4M791.9 156.1L672.1 36.4M791.9 166.1L672.1 46.4M791.9 176.1L672.1 56.4M791.9 186.1L672.1 66.4M791.9 196.1L672.1 76.4M791.9 206.1L672.1 86.4M791.9 216.1L672.1 96.4M791.9 226.1L672.1 106.4M791.9 236.1L672.1 116.4"/></g><g><path d="M910.9 126.1L791.1 6.4M910.9 136.1L791.1 16.4M910.9 146.1L791.1 26.4M910.9 156.1L791.1 36.4M910.9 166.1L791.1 46.4M910.9 176.1L791.1 56.4M910.9 186.1L791.1 66.4M910.9 196.1L791.1 76.4M910.9 206.1L791.1 86.4M910.9 216.1L791.1 96.4M910.9 226.1L791.1 106.4M910.9 236.1L791.1 116.4"/></g><g><path d="M672.9 7.1L553.1-112.6M672.9 17.1L553.1-102.6M672.9 27.1L553.1-92.6M672.9 37.1L553.1-82.6M672.9 47.1L553.1-72.6M672.9 57.1L553.1-62.6M672.9 67.1L553.1-52.6M672.9 77.1L553.1-42.6M672.9 87.1L553.1-32.6M672.9 97.1L553.1-22.6M672.9 107.1L553.1-12.6M672.9 117.1L553.1-2.6"/></g><g><path d="M791.9 7.1L672.1-112.6M791.9 17.1L672.1-102.6M791.9 27.1L672.1-92.6M791.9 37.1L672.1-82.6M791.9 47.1L672.1-72.6M791.9 57.1L672.1-62.6M791.9 67.1L672.1-52.6M791.9 77.1L672.1-42.6M791.9 87.1L672.1-32.6M791.9 97.1L672.1-22.6M791.9 107.1L672.1-12.6M791.9 117.1L672.1-2.6"/></g><g><path d="M910.9 7.1L791.1-112.6M910.9 17.1L791.1-102.6M910.9 27.1L791.1-92.6M910.9 37.1L791.1-82.6M910.9 47.1L791.1-72.6M910.9 57.1L791.1-62.6M910.9 67.1L791.1-52.6M910.9 77.1L791.1-42.6M910.9 87.1L791.1-32.6M910.9 97.1L791.1-22.6M910.9 107.1L791.1-12.6M910.9 117.1L791.1-2.6"/></g></g><g><path d="M672.9 245.1L553.1 125.4M672.9 255.1L553.1 135.4M672.9 265.1L553.1 145.4M672.9 275.1L553.1 155.4M672.9 285.1L553.1 165.4M672.9 295.1L553.1 175.4M668 300.3c-38-38.1-77-77.1-114.9-114.9"/><g><path d="M791.9 245.1L672.1 125.4M791.9 255.1L672.1 135.4M791.9 265.1L672.1 145.4M791.9 275.1L672.1 155.4M791.9 285.1L672.1 165.4M791.9 295.1L672.1 175.4M787.7 301C749 262.2 711 224.2 672.1 185.4"/></g><g><path d="M910.9 245.1L791.1 125.4M910.9 255.1L791.1 135.4M910.9 265.1L791.1 145.4M910.9 275.1L791.1 155.4M910.9 285.1L791.1 165.4M910.9 295.1L791.1 175.4M908.1 302.4c-39.1-39.2-78.1-78.2-117-117"/></g><g><path d="M672.9 126.1L553.1 6.4M672.9 136.1L553.1 16.4M672.9 146.1L553.1 26.4M672.9 156.1L553.1 36.4M672.9 166.1L553.1 46.4M672.9 176.1L553.1 56.4M672.9 186.1L553.1 66.4M672.9 196.1L553.1 76.4M672.9 206.1L553.1 86.4M672.9 216.1L553.1 96.4M672.9 226.1L553.1 106.4M672.9 236.1L553.1 116.4"/></g><g><path d="M791.9 126.1L672.1 6.4M791.9 136.1L672.1 16.4M791.9 146.1L672.1 26.4M791.9 156.1L672.1 36.4M791.9 166.1L672.1 46.4M791.9 176.1L672.1 56.4M791.9 186.1L672.1 66.4M791.9 196.1L672.1 76.4M791.9 206.1L672.1 86.4M791.9 216.1L672.1 96.4M791.9 226.1L672.1 106.4M791.9 236.1L672.1 116.4"/></g><g><path d="M910.9 126.1L791.1 6.4M910.9 136.1L791.1 16.4M910.9 146.1L791.1 26.4M910.9 156.1L791.1 36.4M910.9 166.1L791.1 46.4M910.9 176.1L791.1 56.4M910.9 186.1L791.1 66.4M910.9 196.1L791.1 76.4M910.9 206.1L791.1 86.4M910.9 216.1L791.1 96.4M910.9 226.1L791.1 106.4M910.9 236.1L791.1 116.4"/></g></g><g><path d="M672.9 245.1L553.1 125.4M672.9 255.1L553.1 135.4M672.9 265.1L553.1 145.4M672.9 275.1L553.1 155.4M672.9 285.1L553.1 165.4M672.9 295.1L553.1 175.4M668 300.3c-38-38.1-77-77.1-114.9-114.9"/><g><path d="M791.9 245.1L672.1 125.4M791.9 255.1L672.1 135.4M791.9 265.1L672.1 145.4M791.9 275.1L672.1 155.4M791.9 285.1L672.1 165.4M791.9 295.1L672.1 175.4M787.7 301C749 262.2 711 224.2 672.1 185.4"/></g><g><path d="M910.9 245.1L791.1 125.4M910.9 255.1L791.1 135.4M910.9 265.1L791.1 145.4M910.9 275.1L791.1 155.4M910.9 285.1L791.1 165.4M910.9 295.1L791.1 175.4M908.1 302.4c-39.1-39.2-78.1-78.2-117-117"/></g></g><g><path d="M791.9 126.1L672.1 6.4M791.9 136.1L672.1 16.4M791.9 146.1L672.1 26.4M791.9 156.1L672.1 36.4M791.9 166.1L672.1 46.4M791.9 176.1L672.1 56.4M791.9 186.1L672.1 66.4M791.9 196.1L672.1 76.4M791.9 206.1L672.1 86.4M791.9 216.1L672.1 96.4M791.9 226.1L672.1 106.4M791.9 236.1L672.1 116.4"/><g><path d="M910.9 126.1L791.1 6.4M910.9 136.1L791.1 16.4M910.9 146.1L791.1 26.4M910.9 156.1L791.1 36.4M910.9 166.1L791.1 46.4M910.9 176.1L791.1 56.4M910.9 186.1L791.1 66.4M910.9 196.1L791.1 76.4M910.9 206.1L791.1 86.4M910.9 216.1L791.1 96.4M910.9 226.1L791.1 106.4M910.9 236.1L791.1 116.4"/></g><g><path d="M923 19.3c-4-4.1-9-9.1-12.9-12.9M923 29.3c-4-4.1-9-9.1-12.9-12.9M923 39.3c-4-4.1-9-9.1-12.9-12.9M923 49.3c-4-4.1-9-9.1-12.9-12.9M923 59.3c-4-4.1-9-9.1-12.9-12.9M923 69.3c-4-4.1-9-9.1-12.9-12.9M923 79.3c-4-4.1-9-9.1-12.9-12.9M923 89.3c-4-4.1-9-9.1-12.9-12.9M923 99.3c-4-4.1-9-9.1-12.9-12.9M923 109.3c-4-4.1-9-9.1-12.9-12.9M923 119.3c-4-4.1-9-9.1-12.9-12.9M923 129.3c-4-4.1-9-9.1-12.9-12.9"/></g><g><path d="M791.9 7.1L672.1-112.6M791.9 17.1L672.1-102.6M791.9 27.1L672.1-92.6M791.9 37.1L672.1-82.6M791.9 47.1L672.1-72.6M791.9 57.1L672.1-62.6M791.9 67.1L672.1-52.6M791.9 77.1L672.1-42.6M791.9 87.1L672.1-32.6M791.9 97.1L672.1-22.6M791.9 107.1L672.1-12.6M791.9 117.1L672.1-2.6"/></g><g><path d="M910.9 7.1L791.1-112.6M910.9 17.1L791.1-102.6M910.9 27.1L791.1-92.6M910.9 37.1L791.1-82.6M910.9 47.1L791.1-72.6M910.9 57.1L791.1-62.6M910.9 67.1L791.1-52.6M910.9 77.1L791.1-42.6M910.9 87.1L791.1-32.6M910.9 97.1L791.1-22.6M910.9 107.1L791.1-12.6M910.9 117.1L791.1-2.6"/></g><g><path d="M923 .3c-4-4.1-9-9.1-12.9-12.9M923 10.3c-4-4.1-9-9.1-12.9-12.9"/></g></g><g><path d="M791.9 245.1L672.1 125.4M791.9 255.1L672.1 135.4M791.9 265.1L672.1 145.4M791.9 275.1L672.1 155.4M791.9 285.1L672.1 165.4M791.9 295.1L672.1 175.4M787.7 301C749 262.2 711 224.2 672.1 185.4"/><g><path d="M910.9 245.1L791.1 125.4M910.9 255.1L791.1 135.4M910.9 265.1L791.1 145.4M910.9 275.1L791.1 155.4M910.9 285.1L791.1 165.4M910.9 295.1L791.1 175.4M908.1 302.4c-39.1-39.2-78.1-78.2-117-117"/></g><g><path d="M923 138.3c-4-4.1-9-9.1-12.9-12.9M923 148.3c-4-4.1-9-9.1-12.9-12.9M923 158.3c-4-4.1-9-9.1-12.9-12.9M923 168.3c-4-4.1-9-9.1-12.9-12.9M923 178.3c-4-4.1-9-9.1-12.9-12.9M923 188.3c-4-4.1-9-9.1-12.9-12.9M923 198.3c-4-4.1-9-9.1-12.9-12.9"/></g><g><path d="M791.9 126.1L672.1 6.4M791.9 136.1L672.1 16.4M791.9 146.1L672.1 26.4M791.9 156.1L672.1 36.4M791.9 166.1L672.1 46.4M791.9 176.1L672.1 56.4M791.9 186.1L672.1 66.4M791.9 196.1L672.1 76.4M791.9 206.1L672.1 86.4M791.9 216.1L672.1 96.4M791.9 226.1L672.1 106.4M791.9 236.1L672.1 116.4"/></g><g><path d="M910.9 126.1L791.1 6.4M910.9 136.1L791.1 16.4M910.9 146.1L791.1 26.4M910.9 156.1L791.1 36.4M910.9 166.1L791.1 46.4M910.9 176.1L791.1 56.4M910.9 186.1L791.1 66.4M910.9 196.1L791.1 76.4M910.9 206.1L791.1 86.4M910.9 216.1L791.1 96.4M910.9 226.1L791.1 106.4M910.9 236.1L791.1 116.4"/></g><g><path d="M923 19.3c-4-4.1-9-9.1-12.9-12.9M923 29.3c-4-4.1-9-9.1-12.9-12.9M923 39.3c-4-4.1-9-9.1-12.9-12.9M923 49.3c-4-4.1-9-9.1-12.9-12.9M923 59.3c-4-4.1-9-9.1-12.9-12.9M923 69.3c-4-4.1-9-9.1-12.9-12.9M923 79.3c-4-4.1-9-9.1-12.9-12.9M923 89.3c-4-4.1-9-9.1-12.9-12.9M923 99.3c-4-4.1-9-9.1-12.9-12.9M923 109.3c-4-4.1-9-9.1-12.9-12.9M923 119.3c-4-4.1-9-9.1-12.9-12.9M923 129.3c-4-4.1-9-9.1-12.9-12.9"/></g></g><g><path d="M791.9 245.1L672.1 125.4M791.9 255.1L672.1 135.4M791.9 265.1L672.1 145.4M791.9 275.1L672.1 155.4M791.9 285.1L672.1 165.4M791.9 295.1L672.1 175.4M787.7 301C749 262.2 711 224.2 672.1 185.4"/><g><path d="M910.9 245.1L791.1 125.4M910.9 255.1L791.1 135.4M910.9 265.1L791.1 145.4M910.9 275.1L791.1 155.4M910.9 285.1L791.1 165.4M910.9 295.1L791.1 175.4M908.1 302.4c-39.1-39.2-78.1-78.2-117-117"/></g><g><path d="M923 138.3c-4-4.1-9-9.1-12.9-12.9M923 148.3c-4-4.1-9-9.1-12.9-12.9M923 158.3c-4-4.1-9-9.1-12.9-12.9M923 168.3c-4-4.1-9-9.1-12.9-12.9M923 178.3c-4-4.1-9-9.1-12.9-12.9M923 188.3c-4-4.1-9-9.1-12.9-12.9M923 198.3c-4-4.1-9-9.1-12.9-12.9"/></g></g><g><path d="M910.9 126.1L791.1 6.4M910.9 136.1L791.1 16.4M910.9 146.1L791.1 26.4M910.9 156.1L791.1 36.4M910.9 166.1L791.1 46.4M910.9 176.1L791.1 56.4M910.9 186.1L791.1 66.4M910.9 196.1L791.1 76.4M910.9 206.1L791.1 86.4M910.9 216.1L791.1 96.4M910.9 226.1L791.1 106.4M910.9 236.1L791.1 116.4"/><g><path d="M923 19.3c-4-4.1-9-9.1-12.9-12.9M923 29.3c-4-4.1-9-9.1-12.9-12.9M923 39.3c-4-4.1-9-9.1-12.9-12.9M923 49.3c-4-4.1-9-9.1-12.9-12.9M923 59.3c-4-4.1-9-9.1-12.9-12.9M923 69.3c-4-4.1-9-9.1-12.9-12.9M923 79.3c-4-4.1-9-9.1-12.9-12.9M923 89.3c-4-4.1-9-9.1-12.9-12.9M923 99.3c-4-4.1-9-9.1-12.9-12.9M923 109.3c-4-4.1-9-9.1-12.9-12.9M923 119.3c-4-4.1-9-9.1-12.9-12.9M923 129.3c-4-4.1-9-9.1-12.9-12.9"/></g><g><path d="M910.9 7.1L791.1-112.6M910.9 17.1L791.1-102.6M910.9 27.1L791.1-92.6M910.9 37.1L791.1-82.6M910.9 47.1L791.1-72.6M910.9 57.1L791.1-62.6M910.9 67.1L791.1-52.6M910.9 77.1L791.1-42.6M910.9 87.1L791.1-32.6M910.9 97.1L791.1-22.6M910.9 107.1L791.1-12.6M910.9 117.1L791.1-2.6"/></g><g><path d="M923 .3c-4-4.1-9-9.1-12.9-12.9M923 10.3c-4-4.1-9-9.1-12.9-12.9"/></g></g><g><path d="M910.9 245.1L791.1 125.4M910.9 255.1L791.1 135.4M910.9 265.1L791.1 145.4M910.9 275.1L791.1 155.4M910.9 285.1L791.1 165.4M910.9 295.1L791.1 175.4M908.1 302.4c-39.1-39.2-78.1-78.2-117-117"/><g><path d="M923 138.3c-4-4.1-9-9.1-12.9-12.9M923 148.3c-4-4.1-9-9.1-12.9-12.9M923 158.3c-4-4.1-9-9.1-12.9-12.9M923 168.3c-4-4.1-9-9.1-12.9-12.9M923 178.3c-4-4.1-9-9.1-12.9-12.9M923 188.3c-4-4.1-9-9.1-12.9-12.9M923 198.3c-4-4.1-9-9.1-12.9-12.9"/></g><g><path d="M910.9 126.1L791.1 6.4M910.9 136.1L791.1 16.4M910.9 146.1L791.1 26.4M910.9 156.1L791.1 36.4M910.9 166.1L791.1 46.4M910.9 176.1L791.1 56.4M910.9 186.1L791.1 66.4M910.9 196.1L791.1 76.4M910.9 206.1L791.1 86.4M910.9 216.1L791.1 96.4M910.9 226.1L791.1 106.4M910.9 236.1L791.1 116.4"/></g><g><path d="M923 19.3c-4-4.1-9-9.1-12.9-12.9M923 29.3c-4-4.1-9-9.1-12.9-12.9M923 39.3c-4-4.1-9-9.1-12.9-12.9M923 49.3c-4-4.1-9-9.1-12.9-12.9M923 59.3c-4-4.1-9-9.1-12.9-12.9M923 69.3c-4-4.1-9-9.1-12.9-12.9M923 79.3c-4-4.1-9-9.1-12.9-12.9M923 89.3c-4-4.1-9-9.1-12.9-12.9M923 99.3c-4-4.1-9-9.1-12.9-12.9M923 109.3c-4-4.1-9-9.1-12.9-12.9M923 119.3c-4-4.1-9-9.1-12.9-12.9M923 129.3c-4-4.1-9-9.1-12.9-12.9"/></g></g><g><path d="M910.9 245.1L791.1 125.4M910.9 255.1L791.1 135.4M910.9 265.1L791.1 145.4M910.9 275.1L791.1 155.4M910.9 285.1L791.1 165.4M910.9 295.1L791.1 175.4M908.1 302.4c-39.1-39.2-78.1-78.2-117-117"/><g><path d="M923 138.3c-4-4.1-9-9.1-12.9-12.9M923 148.3c-4-4.1-9-9.1-12.9-12.9M923 158.3c-4-4.1-9-9.1-12.9-12.9M923 168.3c-4-4.1-9-9.1-12.9-12.9M923 178.3c-4-4.1-9-9.1-12.9-12.9M923 188.3c-4-4.1-9-9.1-12.9-12.9M923 198.3c-4-4.1-9-9.1-12.9-12.9"/></g></g></g></g><path d="M713.9-3c-88.3-8.9-168.6-11.5-238.8-7.7-87.6 4.8-159.4 19.6-213.7 44.1-108.2 48.8-199.9 75.2-264 89.3v-7.2C101.8 92.4 196 55.2 258.6 26.9c55-24.8 127.7-39.9 216.2-44.7 70.6-3.9 151.3-1.3 239.9 7.7 83.7 8.7 159 21.3 209.5 31 0 2.3 0 4.7-.1 7.1-50.3-9.6-125.9-22.4-210.2-31z" fill="#4B2A5B" fill-rule="nonzero" opacity=".696"/><path d="M714-24c-88.3-8.9-168.7-11.5-239-7.7-87.7 4.8-159.7 19.7-214 44.2C153 61.3 61.4 87.6-2.7 101.7v-5.1C101.9 73.5 196.3 36.2 259 7.9c54.8-24.7 127.4-39.7 215.7-44.5 70.5-3.9 151.2-1.3 239.8 7.7 84 8.5 159.4 21.2 209.9 30.9v5.1C873.9-2.6 798.3-15.4 714-24z" fill="#401B56" fill-rule="nonzero" opacity=".696"/><path d="M801.7 59.9c-10.7-.2-18.4-.3-20.8-.3-26.7-.1-57.8-.3-88.4-.5h-10.9c-25.6.1-52 .1-74.9-12.4-7.9-4.3-15.1-9.6-22.2-14.8-7.7-5.6-15.6-11.5-24.1-15.7-23.7-11.9-50.3-11.2-76-10.5-7.2.2-14.7.4-21.9.3-13.9-.2-28-.1-41.7-.1-7 0-13.9.1-20.9.1H-3.6c0-2.4-.1-4.7-.1-7H400c7 0 13.9 0 20.9-.1 13.7-.1 27.9-.1 41.8.1 7.2.1 14.5-.1 21.7-.3C511-2 538.5-2.7 563.7 10c9 4.5 17.2 10.5 25.1 16.3 6.8 5 13.9 10.2 21.4 14.3C631.5 52.1 657 52.1 681.7 52h10.9c30.6.3 61.6.4 88.4.5 2.4 0 9.8.1 20.9.3 24.8.5 79.3 1.5 122.1 1.6v7c-3.6 0-7.4 0-11.3-.1-39.1-.2-84.1-.9-111-1.4z" fill="#C63E3A" fill-rule="nonzero" opacity=".696"/><path d="M912.7 40.4c-39.1-.2-84.1-1-111-1.5-10.7-.2-18.4-.3-20.8-.3-26.7-.1-57.8-.3-88.4-.5H681c-25.1.1-51 .2-73.5-12.1-7.8-4.3-15.1-9.6-22.2-14.8-7.8-5.7-15.8-11.6-24.4-15.9-23.9-12-50.6-11.3-76.5-10.6-7.2.2-14.6.4-21.9.3-13.9-.2-28-.1-41.7-.1-7 0-13.9.1-20.9.1H-3.8c0-1.7 0-3.4-.1-5H400c7 0 13.9 0 20.9-.1 13.7-.1 27.9-.1 41.8.1 7.2.1 14.6-.1 21.7-.3 26.5-.7 53.8-1.4 78.8 11.2 8.9 4.5 17.2 10.5 25.1 16.4 6.9 5.1 14.1 10.4 21.6 14.5C631.3 33.2 656.6 33.1 681 33h11.6c30.6.3 61.6.4 88.4.5 2.4 0 9.8.1 20.9.3 24.9.4 79.5 1.4 122.3 1.5v5c-3.8.1-7.6.1-11.5.1z" fill="#8C1E35" fill-rule="nonzero" opacity=".696"/><path d="M830 112.2c-23.1 0-46.6-.2-69.4-.5-45.5-.5-92.6-.9-138.7.5-16.5.5-32.8 3.5-48.6 6.4-15.6 2.9-31.7 5.8-48.1 6.5-18.9.7-46.3-1.7-69.3-17.3-7.5-5.1-13.9-11-20.1-16.8-9.9-9.2-19.3-18-32.5-22.8-22-8.1-46.5-7.9-68.1-7.7-108.2.9-219.4 1.4-338.4 1.6v-7c119-.1 230.2-.6 338.4-1.6 21.1-.2 47.4-.4 70.6 8.2 14.5 5.4 24.8 15 34.8 24.3 6 5.6 12.2 11.4 19.3 16.1 21.4 14.6 47.2 16.8 65.1 16.1 16-.6 31.8-3.5 47.1-6.4 16-3 32.6-6 49.6-6.5 46.2-1.4 93.4-.9 138.9-.5 22.7.2 46.2.5 69.3.5h93.9v7H830v-.1z" fill="#FB7552" fill-rule="nonzero" opacity=".696"/><path d="M840 91.2c-23.1 0-46.6-.2-69.3-.5-45.5-.5-92.6-.9-138.7.5-16.5.5-32.9 3.5-48.7 6.4-15.5 2.9-31.6 5.8-48 6.5-18.8.7-45.9-1.7-68.7-17.1-7.4-5-13.8-11-20-16.7-10-9.3-19.5-18.1-32.8-23-22.1-8.2-46.7-8-68.4-7.8-111.3 1-225.7 1.5-348.6 1.6v-5c122.9-.1 237.3-.6 348.6-1.6 21-.2 47.2-.4 70.2 8.1 14.3 5.3 24.5 14.8 34.5 24.1 6 5.6 12.3 11.4 19.4 16.2 21.6 14.7 47.6 17 65.7 16.3 16-.6 31.9-3.5 47.3-6.4 16-3 32.5-6 49.5-6.5 46.2-1.4 93.3-.9 138.9-.5 22.7.2 46.2.5 69.3.5h83.6v5H840v-.1z" fill="#E84D34" fill-rule="nonzero" opacity=".696"/><path d="M884.6 128c-9.1-3.2-18.3-6.6-27.2-9.9-31.9-11.8-64.9-24.1-99.6-26.4-50.9-3.3-98.8 15.1-142.9 35.5l-14.4 6.6c-17.6 8.1-35.9 16.4-53.5 25.8-22.3 11.9-46.3 23.5-72.4 23.5h-2c-25.5-.6-50.1-10.3-73.9-19.8-12.1-4.8-24.6-9.7-36.7-13.3-87.6-25.4-182.5-32.3-263.9-35.6-8.5-.3-17-.8-25.9-1.3-24.8-1.3-50.2-2.6-74.9-1.7v-5c24.8-.9 50.3.4 75.2 1.8 9 .5 17.4.9 25.9 1.3 81.7 3.3 177 10.2 265.1 35.8 12.4 3.6 25 8.6 37.2 13.4 23.4 9.3 47.6 18.8 72.2 19.4 25.7.6 49.6-11 71.9-22.9 17.8-9.5 36.1-17.9 53.8-26 4.8-2.2 9.6-4.4 14.3-6.6 44.7-20.7 93.2-39.4 145.3-36 35.4 2.3 68.7 14.7 101 26.7 8.9 3.3 18.1 6.7 27.1 9.8 12.3 4.3 24.8 8.7 37.4 13.4v5.3c-13.2-4.7-26.3-9.4-39.1-13.8z" fill="#F4A519" fill-rule="nonzero" opacity=".696"/><path d="M884.3 148.9c-9.1-3.2-18.3-6.6-27.2-9.9-31.8-11.8-64.8-24-99.3-26.3-50.7-3.3-98.4 15.1-142.4 35.4l-14.4 6.6c-17.6 8.1-35.8 16.4-53.5 25.8-23 12.3-47.8 24.2-74.9 23.6-25.7-.6-50.4-10.4-74.3-19.8-12-4.8-24.5-9.7-36.6-13.2-87.5-25.4-182.4-32.2-263.7-35.5-8.5-.3-17.4-.8-25.9-1.3-24.8-1.3-50.1-2.6-74.8-1.8v-7c24.8-.9 50.2.5 75.2 1.8 8.9.5 17.4.9 25.9 1.3 81.7 3.3 177.1 10.2 265.3 35.8 12.5 3.6 25.1 8.6 37.3 13.4 23.3 9.2 47.5 18.8 71.9 19.3 25.5.6 49.2-10.9 71.4-22.7 17.8-9.5 36.1-17.9 53.8-26 4.8-2.2 9.6-4.4 14.3-6.6 28-13 49.7-21.3 70.5-27.2 26.9-7.5 51.6-10.5 75.2-8.9 35.6 2.3 69 14.7 101.3 26.7 8.9 3.3 18 6.7 27.1 9.8 12.2 4.2 24.6 8.6 37 13.2v7.5c-13.1-4.8-26.3-9.5-39.2-14z" fill="#FDC755" fill-rule="nonzero" opacity=".696"/></g></svg>