<?xml version="1.0" encoding="utf-8"?>
<!-- Generator: Adobe Illustrator 23.0.3, SVG Export Plug-In . SVG Version: 6.00 Build 0)  -->
<svg version="1.1" id="Layer_1" xmlns="http://www.w3.org/2000/svg" xmlns:xlink="http://www.w3.org/1999/xlink" x="0px" y="0px"
	 viewBox="0 0 925 500" style="enable-background:new 0 0 925 500;" xml:space="preserve">
<style type="text/css">
	.st0{fill:#044696;}
	.st1{fill:#044072;}
	.st2{fill:#0793AA;}
	.st3{fill:#047B8E;}
</style>
<path class="st0" d="M928.2,153.9c-47.8,19.7-85.7,40.6-114.6,76.4c-9,11.1-17.3,22.9-25.3,34.3c-14.8,21-30.2,42.8-49.9,60.6
	c-30.4,27.5-69.1,44.1-106.5,57.9c-45,16.6-90.8,29.6-133.6,41.1c-6.6,1.8-13.2,3.6-19.8,5.4c-16,4.4-32.6,8.9-48.9,12.9
	c-51.8,12.7-105.1,21-158.4,24.7c-43.4,3-87.5,1.7-130.1,0.4c-8.3-0.2-16.7-0.5-25-0.7c-28.2-0.7-56.6,7.2-84,14.9
	c-11.1,3.1-22.5,6.3-33.8,8.9c0,2.4,0,4.8,0,7.2c12-2.7,24-6,35.7-9.3c26.9-7.6,54.8-15.3,81.9-14.6c8.3,0.2,16.7,0.5,25,0.7
	c42.8,1.3,87.1,2.6,130.8-0.4c53.7-3.7,107.4-12.1,159.6-24.9c16.5-4,33.1-8.6,49.1-13c6.6-1.8,13.2-3.6,19.8-5.4
	c43-11.6,89-24.6,134.2-41.3c38-14,77.5-30.9,108.8-59.3c20.3-18.4,35.9-40.4,50.9-61.8c8-11.3,16.2-23,25-33.9
	c27.4-34,63.5-54.2,109.1-73.2C928.2,159,928.2,156.5,928.2,153.9z"/>
<path class="st1" d="M928.2,134.9L928.2,134.9l-0.7-1.6c-49.6,20.2-88.6,41.1-118.1,77.7c-8.9,11.1-17.2,22.8-25.3,34.2
	c-14.9,21.1-30.3,42.8-50.1,60.8c-30.5,27.7-69.4,44.3-106.8,58.1c-45,16.6-90.9,29.6-133.7,41.1c-6.6,1.8-13.2,3.6-19.8,5.4
	c-16,4.4-32.6,8.9-48.9,12.9c-51.8,12.7-105.2,21-158.6,24.7c-43.4,3-87.5,1.7-130.2,0.4c-8.3-0.2-16.7-0.5-25-0.7
	c-28-0.7-56.3,7.2-83.7,14.9c-9.6,2.7-19.3,5.4-29,7.8c0,1.7,0,3.4,0,5.1c10.2-2.4,20.4-5.3,30.4-8.1c27-7.6,55-15.4,82.2-14.7
	c8.3,0.2,16.7,0.5,25,0.7c42.8,1.3,87,2.6,130.7-0.4c53.7-3.7,107.3-12.1,159.4-24.8c16.4-4,33-8.6,49.1-13
	c6.6-1.8,13.2-3.6,19.8-5.4c42.9-11.6,88.9-24.5,134.1-41.2c37.9-14,77.3-30.9,108.5-59.1c20.2-18.3,35.8-40.3,50.8-61.6
	c8-11.3,16.2-23,25.1-34c28.6-35.5,66.6-56,114.9-75.7C928.2,137.2,928.2,136,928.2,134.9z"/>
<path class="st2" d="M928.2,25.2c-35.8,41.7-87.4,95.3-147.9,138.8c-78.6,56.4-154.2,83.2-224.7,79.5
	c-42.7-2.2-84.5-13.7-121.5-23.9c-43.6-12-81.3-22.4-110.5-15.6c-43.2,10.1-55.4,57.8-65.3,96.1c-1.6,6.3-3.2,12.3-4.8,17.8
	c-9.7,33.4-38.3,59.2-87.7,78.9c-22.1,8.8-45.5,16.1-68.1,23.2c-5.7,1.8-11.3,3.5-16.9,5.3c-27.7,8.8-54.9,16.9-82.7,18.6
	c0,2.3,0,4.7,0,7c28.7-1.7,56.5-9.9,84.8-18.9c5.6-1.8,11.2-3.5,16.9-5.3c22.7-7.1,46.2-14.5,68.6-23.4
	c51.5-20.5,81.5-47.8,91.8-83.5c1.6-5.6,3.2-11.6,4.8-18c9.4-36.5,21.1-82,60.1-91.1c27.4-6.4,64.3,3.8,107,15.5
	c37.3,10.3,79.5,21.9,123,24.1c4.4,0.2,8.8,0.3,13.2,0.3c146.5,0,281.8-125.5,359.7-214.9C928.2,32.4,928.2,28.8,928.2,25.2z"/>
<path class="st3" d="M928.3-5.1c-35.8,43-91.3,102.5-157.4,149.9c-78.8,56.6-154.6,83.4-225.3,79.7c-42.8-2.2-84.7-13.8-121.7-23.9
	c-43.5-12-81.1-22.3-110-15.6c-42.6,9.9-54.8,57.3-64.6,95.4c-1.6,6.3-3.2,12.3-4.8,17.8c-9.7,33.8-38.6,59.8-88.2,79.6
	c-22.2,8.8-45.6,16.2-68.2,23.2c-5.7,1.8-11.3,3.5-16.9,5.3c-24.5,7.8-48.5,15-73,17.7c0,1.7,0,3.4,0,5c25-2.8,49.6-10.1,74.5-18
	c5.6-1.8,11.3-3.6,16.9-5.3c22.7-7.1,46.2-14.5,68.5-23.4c51.2-20.4,81-47.5,91.2-82.8c1.6-5.6,3.2-11.6,4.8-18
	c9.5-36.8,21.2-82.5,60.8-91.8c27.6-6.4,64.6,3.7,107.5,15.5c37.2,10.2,79.4,21.9,122.8,24.1c4.4,0.2,8.8,0.3,13.2,0.3
	c153.1,0,294.1-137.6,369.7-227.2C928.3,0.1,928.3-2.5,928.3-5.1z"/>
</svg>
